<svg width="160" height="160" viewBox="0 0 160 160" fill="none" xmlns="http://www.w3.org/2000/svg">
<g id="Affiliate" clip-path="url(#clip0_73_4741)">
<path id="Vector" d="M80.0002 155.55C65.0579 155.55 50.451 151.119 38.0269 142.818C25.6028 134.516 15.9193 122.717 10.2011 108.912C4.48293 95.1068 2.98679 79.9162 5.9019 65.2609C8.81702 50.6056 16.0125 37.1439 26.5783 26.5781C37.1442 16.0122 50.6059 8.81677 65.2612 5.90166C79.9164 2.98654 95.107 4.48269 108.912 10.2009C122.717 15.9191 134.516 25.6025 142.818 38.0267C151.119 50.4508 155.55 65.0576 155.55 80C155.533 100.032 147.567 119.238 133.403 133.402C119.238 147.567 100.032 155.532 80.0002 155.55ZM80.0002 7.78332C65.7171 7.78332 51.7548 12.0188 39.8788 19.954C28.0028 27.8893 18.7466 39.168 13.2807 52.3639C7.81482 65.5597 6.38469 80.0801 9.17119 94.0888C11.9577 108.097 18.8357 120.965 28.9353 131.065C39.035 141.165 51.9028 148.043 65.9115 150.829C79.9201 153.616 94.4405 152.185 107.636 146.719C120.832 141.254 132.111 131.997 140.046 120.121C147.981 108.245 152.217 94.2831 152.217 80C152.195 60.8537 144.579 42.4979 131.041 28.9594C117.502 15.421 99.1465 7.80537 80.0002 7.78332Z" fill="#E1E7F8"/>
<path id="Vector_2" d="M54.2331 25.1667C53.8531 25.165 53.4852 25.0335 53.1902 24.794C52.8952 24.5545 52.6909 24.2214 52.6112 23.8499C52.5315 23.4784 52.581 23.0908 52.7517 22.7513C52.9224 22.4119 53.204 22.1409 53.5498 21.9834C61.8538 18.1979 70.8736 16.239 79.9998 16.239C89.1259 16.239 98.1457 18.1979 106.45 21.9834C106.85 22.1757 107.157 22.519 107.304 22.9378C107.451 23.3567 107.425 23.8167 107.233 24.2167C107.041 24.6168 106.698 24.924 106.279 25.071C105.86 25.2179 105.4 25.1924 105 25.0001C97.147 21.4367 88.6232 19.5932 79.9998 19.5932C71.3763 19.5932 62.8525 21.4367 54.9998 25.0001C54.7599 25.1124 54.4979 25.1694 54.2331 25.1667ZM23.4831 107.4C23.1643 107.401 22.852 107.31 22.5832 107.139C22.3144 106.968 22.1003 106.723 21.9664 106.433C18.193 98.1291 16.2407 89.1132 16.2407 79.9917C16.2407 70.8703 18.193 61.8544 21.9664 53.5501C22.1514 53.1514 22.4863 52.8419 22.8983 52.6889C23.3104 52.536 23.7661 52.552 24.1664 52.7334C24.3737 52.8231 24.5607 52.9539 24.7158 53.118C24.871 53.2821 24.9912 53.4761 25.0692 53.688C25.1471 53.9 25.1811 54.1256 25.1692 54.3512C25.1573 54.5767 25.0996 54.7975 24.9998 55.0001C21.4416 62.8543 19.601 71.3775 19.601 80.0001C19.601 88.6227 21.4416 97.1459 24.9998 105C25.125 105.256 25.1828 105.539 25.1674 105.823C25.1521 106.108 25.0642 106.383 24.9121 106.624C24.76 106.865 24.5488 107.062 24.2987 107.198C24.0485 107.334 23.7678 107.404 23.4831 107.4ZM53.5664 138.033C53.1642 137.843 52.8539 137.501 52.7039 137.082C52.5539 136.664 52.5764 136.202 52.7664 135.8C52.9565 135.398 53.2986 135.088 53.7174 134.938C54.1362 134.788 54.5975 134.81 54.9998 135C62.8724 138.588 71.4232 140.444 80.0748 140.444C88.7263 140.444 97.2772 138.588 105.15 135C105.552 134.817 106.011 134.8 106.425 134.955C106.839 135.11 107.175 135.423 107.358 135.825C107.542 136.227 107.558 136.686 107.403 137.1C107.248 137.514 106.935 137.85 106.533 138.033C98.2183 141.822 89.1872 143.783 80.0498 143.783C70.9123 143.783 61.8813 141.822 53.5664 138.033ZM136.516 107.4C136.232 107.404 135.951 107.334 135.701 107.198C135.451 107.062 135.24 106.865 135.087 106.624C134.935 106.383 134.847 106.108 134.832 105.823C134.817 105.539 134.874 105.256 135 105C138.584 97.1235 140.438 88.5704 140.438 79.9167C140.438 71.2632 138.584 62.71 135 54.8334C134.816 54.4312 134.8 53.9725 134.955 53.5584C135.11 53.1442 135.423 52.8085 135.825 52.6251C136.227 52.4416 136.686 52.4255 137.1 52.5802C137.514 52.7349 137.85 53.0478 138.033 53.4501C141.818 61.7601 143.777 70.7853 143.777 79.9167C143.777 89.0482 141.818 98.0734 138.033 106.383C137.907 106.682 137.696 106.937 137.426 107.118C137.157 107.298 136.841 107.397 136.516 107.4ZM158.333 86.8834C158.091 86.8814 157.852 86.8267 157.634 86.723C157.415 86.6194 157.221 86.4694 157.066 86.2834L153.733 82.3501L149.8 85.6834C149.462 85.9685 149.024 86.1076 148.583 86.0701C148.143 86.0326 147.735 85.8216 147.45 85.4834C147.165 85.1453 147.026 84.7077 147.063 84.267C147.101 83.8263 147.312 83.4185 147.65 83.1334L152.866 78.7334C153.035 78.5931 153.229 78.4873 153.439 78.4223C153.648 78.3572 153.868 78.3341 154.086 78.3542C154.305 78.3743 154.517 78.4373 154.711 78.5396C154.905 78.6418 155.077 78.7813 155.216 78.9501L159.6 84.1501C159.802 84.3925 159.931 84.6874 159.972 85.0003C160.013 85.3131 159.964 85.6313 159.831 85.9176C159.699 86.2039 159.487 86.4467 159.222 86.6176C158.957 86.7886 158.649 86.8808 158.333 86.8834ZM84.3831 12.9834C84.1396 12.9859 83.8984 12.9349 83.6767 12.8341C83.455 12.7333 83.2581 12.5852 83.0998 12.4001L78.7164 7.18341C78.5761 7.015 78.4704 6.82056 78.4053 6.61122C78.3402 6.40188 78.3171 6.18176 78.3372 5.96346C78.3573 5.74517 78.4203 5.53299 78.5226 5.33908C78.6248 5.14516 78.7643 4.97333 78.9331 4.83341L84.1331 0.450081C84.3005 0.30891 84.4941 0.2021 84.7029 0.13575C84.9116 0.0693998 85.1313 0.0448085 85.3495 0.0633802C85.5677 0.0819519 85.7802 0.143323 85.9747 0.243989C86.1692 0.344656 86.3419 0.482646 86.4831 0.650081C86.6243 0.817517 86.7311 1.01112 86.7974 1.21983C86.8638 1.42855 86.8884 1.64828 86.8698 1.8665C86.8512 2.08472 86.7899 2.29714 86.6892 2.49164C86.5885 2.68614 86.4505 2.85891 86.2831 3.00008L82.3498 6.33341L85.6831 10.2667C85.8818 10.5117 86.0069 10.808 86.0439 11.1212C86.0809 11.4344 86.0283 11.7517 85.8922 12.0362C85.756 12.3207 85.542 12.5607 85.2748 12.7284C85.0077 12.8961 84.6985 12.9845 84.3831 12.9834ZM6.11644 81.6667C5.87159 81.6671 5.62966 81.6136 5.40785 81.5099C5.18605 81.4062 4.98981 81.2549 4.83311 81.0667L0.449775 75.8667C0.308475 75.6994 0.201554 75.5058 0.135127 75.2971C0.0686994 75.0883 0.0440691 74.8685 0.0626441 74.6503C0.081219 74.432 0.142635 74.2196 0.24338 74.0251C0.344125 73.8306 0.482222 73.6578 0.649775 73.5167C0.817152 73.3755 1.01074 73.2685 1.21947 73.2021C1.4282 73.1357 1.64798 73.111 1.86623 73.1296C2.08449 73.1482 2.29694 73.2096 2.49145 73.3104C2.68595 73.4111 2.85868 73.5492 2.99977 73.7167L6.33311 77.6501L10.2664 74.3167C10.6046 74.0316 11.0422 73.8925 11.4829 73.93C11.9236 73.9676 12.3313 74.1786 12.6164 74.5167C12.9015 74.8549 13.0406 75.2925 13.0031 75.7332C12.9656 76.1739 12.7546 76.5816 12.4164 76.8667C6.74977 81.6667 6.93311 81.6667 6.11644 81.6667ZM74.7998 160C74.4591 160 74.1265 159.896 73.847 159.701C73.5674 159.506 73.3542 159.23 73.2362 158.911C73.1181 158.591 73.1009 158.243 73.1868 157.913C73.2726 157.584 73.4575 157.288 73.7164 157.067L77.6498 153.733L74.3164 149.8C74.1753 149.632 74.0687 149.437 74.0027 149.227C73.9368 149.017 73.9128 148.797 73.9322 148.578C73.9515 148.359 74.0138 148.146 74.1155 147.951C74.2172 147.756 74.3562 147.583 74.5248 147.442C74.6933 147.301 74.888 147.194 75.0977 147.128C75.3074 147.062 75.5281 147.038 75.7471 147.057C75.9661 147.077 76.1791 147.139 76.374 147.241C76.569 147.342 76.7419 147.482 76.8831 147.65L81.2664 152.867C81.4068 153.035 81.5125 153.23 81.5776 153.439C81.6427 153.648 81.6658 153.868 81.6457 154.087C81.6255 154.305 81.5625 154.517 81.4603 154.711C81.358 154.905 81.2185 155.077 81.0498 155.217C75.4331 160 75.5998 160 74.7998 160Z" fill="#E1E7F8"/>
<path id="Vector_3" d="M83.4667 28.7166L125 70.1833C125.507 70.6843 125.876 71.3078 126.071 71.9934C126.265 72.679 126.28 73.4033 126.112 74.096C125.944 74.7887 125.6 75.4262 125.113 75.9467C124.627 76.4673 124.013 76.853 123.333 77.0666C111.967 80.4 104.367 82.4166 93.3334 88.5166C81.2834 95.1833 81.8 95.5166 66.8334 110.483C66.1876 111.132 65.4201 111.646 64.575 111.998C63.7298 112.349 62.8236 112.53 61.9084 112.53C60.9932 112.53 60.0869 112.349 59.2418 111.998C58.3966 111.646 57.6291 111.132 56.9834 110.483L43.1667 96.6666C41.8629 95.3524 41.1313 93.5762 41.1313 91.725C41.1313 89.8737 41.8629 88.0975 43.1667 86.7833C54.2 75.75 58.5667 72.1 63.1667 63.9333C71.1667 49.5833 71.9334 46.2333 76.6334 30.4C76.8491 29.7283 77.2331 29.123 77.7489 28.6417C78.2647 28.1605 78.8951 27.8192 79.5801 27.6505C80.265 27.4818 80.9818 27.4911 81.6621 27.6778C82.3424 27.8644 82.9637 28.222 83.4667 28.7166Z" fill="#FF7D3F"/>
<path id="Vector_4" d="M83.4668 28.7166L115.333 60.5999C115.84 61.1009 116.209 61.7245 116.404 62.41C116.599 63.0956 116.613 63.8199 116.445 64.5126C116.278 65.2053 115.934 65.8429 115.447 66.3634C114.96 66.8839 114.347 67.2697 113.667 67.4833C102.317 70.8166 94.7168 72.8333 83.7668 78.9333L83.2668 79.2166C82.3748 79.7114 81.346 79.9026 80.3358 79.7613C79.3256 79.62 78.3887 79.1538 77.6668 78.4333L64.8168 65.5999C64.3507 65.1305 64.0498 64.5222 63.9596 63.8668C63.8694 63.2114 63.9948 62.5445 64.3168 61.9666C71.1834 49.6666 72.6501 43.9333 76.6501 30.4666C76.8592 29.7929 77.2373 29.1838 77.7484 28.6975C78.2595 28.2112 78.8865 27.8638 79.5698 27.6884C80.2531 27.513 80.97 27.5154 81.6521 27.6954C82.3342 27.8753 82.9589 28.2269 83.4668 28.7166Z" fill="#FFBA4E"/>
<path id="Vector_5" d="M72.8834 57.1166C71.3501 60.2999 69.9334 62.8999 68.7834 64.9499C68.5489 65.3687 68.4578 65.8528 68.524 66.3282C68.5902 66.8037 68.81 67.2444 69.1501 67.5832L70.7001 69.1332C70.8984 69.3758 71.1446 69.5749 71.4232 69.7183C71.7018 69.8616 72.007 69.9461 72.3196 69.9664C72.6323 69.9867 72.9458 69.9425 73.2407 69.8364C73.5355 69.7304 73.8053 69.5647 74.0334 69.3499L80.0001 63.3332C80.1614 63.1778 80.2897 62.9914 80.3773 62.7852C80.465 62.579 80.5101 62.3573 80.5101 62.1332C80.5101 61.9092 80.465 61.6875 80.3773 61.4813C80.2897 61.2751 80.1614 61.0887 80.0001 60.9332L75.6167 56.6666C75.4295 56.4667 75.1958 56.3161 74.9365 56.2281C74.6772 56.14 74.4002 56.1173 74.1299 56.1617C73.8597 56.2062 73.6046 56.3166 73.3872 56.4832C73.1698 56.6497 72.9967 56.8672 72.8834 57.1166ZM76.1167 51.8332L82.8834 58.6166C83.1334 58.8659 83.472 59.0059 83.8251 59.0059C84.1781 59.0059 84.5168 58.8659 84.7667 58.6166L86.4334 56.9499C86.6828 56.6999 86.8228 56.3613 86.8228 56.0082C86.8228 55.6552 86.6828 55.3165 86.4334 55.0666L78.9501 47.5666C78.7911 47.4107 78.5961 47.2966 78.3823 47.2344C78.1686 47.1722 77.9427 47.1639 77.725 47.21C77.5072 47.2562 77.3042 47.3556 77.1341 47.4992C76.964 47.6428 76.8321 47.8263 76.7501 48.0332C76.4501 48.8332 76.1501 49.6166 75.8501 50.3666C75.7387 50.6089 75.7046 50.8795 75.7523 51.1419C75.8 51.4043 75.9272 51.6456 76.1167 51.8332Z" fill="#FFDD67"/>
<path id="Vector_6" d="M75.1498 56.1666L75.9165 56.9333C76.0955 57.1136 76.2153 57.3442 76.26 57.5943C76.3046 57.8444 76.272 58.1022 76.1665 58.3333C74.3832 62.1833 72.6831 65.25 71.3665 67.6C71.2732 67.7663 71.1426 67.9088 70.9849 68.0162C70.8273 68.1235 70.6468 68.1928 70.4579 68.2187C70.2689 68.2445 70.0765 68.2262 69.8958 68.1651C69.7151 68.104 69.551 68.0019 69.4165 67.8666L68.6165 67.0666C68.4226 66.877 68.2976 66.6281 68.2614 66.3594C68.2252 66.0906 68.2797 65.8175 68.4165 65.5833C69.6998 63.3166 71.3665 60.3166 73.1665 56.5166C73.2507 56.3382 73.3764 56.1826 73.5332 56.0628C73.69 55.943 73.8733 55.8626 74.0676 55.8283C74.2619 55.794 74.4616 55.8069 74.6499 55.8657C74.8382 55.9246 75.0096 56.0278 75.1498 56.1666Z" fill="white"/>
<path id="Vector_7" d="M56.8834 72.9167L80.7334 96.7668C78.6667 98.4334 78.5167 98.7501 66.7834 110.483C66.1376 111.132 65.3701 111.647 64.5249 111.998C63.6798 112.349 62.7736 112.53 61.8584 112.53C60.9432 112.53 60.0369 112.349 59.1918 111.998C58.3466 111.647 57.5791 111.132 56.9334 110.483L43.1667 96.6667C41.8629 95.3525 41.1313 93.5763 41.1313 91.7251C41.1313 89.8739 41.8629 88.0976 43.1667 86.7834C55.7167 74.3001 55.2167 74.8667 56.8834 72.9167Z" fill="#64A6EE"/>
<path id="Vector_8" d="M43.4498 86.5667L43.1664 86.85C42.0669 87.9507 41.3685 89.3886 41.1831 90.9333L48.1998 97.95C48.6592 98.4147 49.2212 98.7653 49.8406 98.9737C50.4599 99.1821 51.1195 99.2424 51.7664 99.15C52.1128 99.0925 52.4364 98.9402 52.7014 98.7099C52.9664 98.4796 53.1625 98.1805 53.2678 97.8456C53.3731 97.5106 53.3835 97.1531 53.298 96.8126C53.2124 96.4721 53.0342 96.162 52.7831 95.9166L43.4498 86.5667Z" fill="#87CEFF"/>
<path id="Vector_9" d="M44.8121 89.5151L43.0796 91.2475C42.6436 91.6836 42.6436 92.3906 43.0796 92.8267L44.1049 93.852C44.541 94.2881 45.2481 94.2881 45.6842 93.852L47.4166 92.1196C47.8526 91.6835 47.8526 90.9765 47.4166 90.5404L46.3913 89.5151C45.9552 89.079 45.2481 89.079 44.8121 89.5151Z" fill="white"/>
<path id="Vector_10" d="M55 97.1499L58.1333 94.0166L55 97.1666V97.1499Z" fill="#64A6EE"/>
<path id="Vector_11" d="M71.5169 87.55L80.7335 96.7667C78.6669 98.4334 78.5169 98.7501 66.7835 110.483C66.1378 111.132 65.3703 111.647 64.5251 111.998C63.6799 112.349 62.7737 112.53 61.8585 112.53C60.9433 112.53 60.0371 112.349 59.1919 111.998C58.3468 111.647 57.5793 111.132 56.9335 110.483L47.7002 101.267C49.0094 102.574 50.7837 103.307 52.6335 103.307C54.4834 103.307 56.2576 102.574 57.5669 101.267C70.1335 88.7 69.5502 89.2167 71.5169 87.55Z" fill="#4B79DF"/>
<path id="Vector_12" d="M98.2002 79.5501C97.6169 80.1334 95.3502 80.6 88.5835 84.3667C85.5002 86.0334 84.0835 86.8334 82.4502 87.8834C82.2994 87.9782 82.1313 88.0422 81.9556 88.0717C81.7799 88.1012 81.6002 88.0956 81.4267 88.0554C81.2531 88.0151 81.0893 87.9409 80.9446 87.837C80.7999 87.7331 80.6772 87.6016 80.5835 87.4501C80.4884 87.3015 80.4237 87.1356 80.3932 86.9619C80.3626 86.7882 80.3669 86.6101 80.4056 86.4381C80.4444 86.266 80.5169 86.1033 80.619 85.9595C80.721 85.8156 80.8506 85.6935 81.0002 85.6001C86.0343 82.5117 91.2681 79.7612 96.6669 77.3667C96.9558 77.2243 97.2861 77.1898 97.5982 77.2696C97.9102 77.3494 98.1835 77.5381 98.3686 77.8017C98.5538 78.0653 98.6385 78.3864 98.6077 78.707C98.5768 79.0276 98.4322 79.3266 98.2002 79.5501Z" fill="#FFBA4E"/>
<path id="Vector_13" d="M57.9704 67.5264L56.9687 68.5282C55.732 69.7648 55.732 71.7698 56.9687 73.0065L80.6332 96.671C81.8698 97.9077 83.8749 97.9077 85.1115 96.671L86.1132 95.6693C87.3499 94.4326 87.3499 92.4276 86.1133 91.1909L62.4487 67.5264C61.2121 66.2898 59.2071 66.2898 57.9704 67.5264Z" fill="#352D5B"/>
<path id="Vector_14" d="M57.9758 67.5362L56.974 68.5379C55.7374 69.7746 55.7374 71.7796 56.974 73.0163L75.4767 91.5189C76.7133 92.7556 78.7183 92.7556 79.955 91.5189L80.9567 90.5172C82.1934 89.2805 82.1934 87.2755 80.9567 86.0388L62.4541 67.5362C61.2175 66.2995 59.2124 66.2995 57.9758 67.5362Z" fill="#3F416A"/>
<path id="Vector_15" d="M60.6627 70.7813L60.2267 71.2174C59.6865 71.7576 59.6865 72.6335 60.2267 73.1737L66.791 79.738C67.3312 80.2783 68.2071 80.2783 68.7473 79.738L69.1834 79.302C69.7236 78.7618 69.7236 77.8859 69.1834 77.3457L62.6191 70.7813C62.0788 70.2411 61.203 70.2411 60.6627 70.7813Z" fill="#536997"/>
<path id="Vector_16" d="M62.9206 73.0494L62.4845 73.4855C61.9443 74.0257 61.9443 74.9016 62.4845 75.4418L64.1698 77.1271C64.71 77.6673 65.5859 77.6673 66.1261 77.1271L66.5622 76.691C67.1024 76.1508 67.1024 75.2749 66.5622 74.7347L64.8769 73.0494C64.3367 72.5092 63.4608 72.5092 62.9206 73.0494Z" fill="#6291C9"/>
<path id="Vector_17" d="M51.3666 78.6631L45.1323 84.8975L68.7615 108.527L74.9958 102.292L51.3666 78.6631Z" fill="#8C97E4"/>
<path id="Vector_18" d="M51.3642 78.646L45.1299 84.8804L59.6491 99.3996L65.8835 93.1653L51.3642 78.646Z" fill="#E1E7F8"/>
<path id="Vector_19" d="M69.2265 96.5342L62.9922 102.769L64.9014 104.678L71.1357 98.4434L69.2265 96.5342Z" fill="#FF7D3F"/>
<path id="Vector_20" d="M64.5776 91.8506L58.3433 98.085L60.2524 99.9941L66.4868 93.7598L64.5776 91.8506Z" fill="#FF7D3F"/>
<path id="Vector_21" d="M59.8872 87.1839L53.6528 93.4182L55.562 95.3274L61.7963 89.0931L59.8872 87.1839Z" fill="#FFBA4E"/>
<path id="Vector_22" d="M55.2089 82.5125L48.9746 88.7468L50.8838 90.656L57.1181 84.4217L55.2089 82.5125Z" fill="#FFBA4E"/>
<path id="Vector_23" d="M75 35.8167L81.1167 41.95C81.2447 42.0729 81.3466 42.2204 81.4162 42.3836C81.4858 42.5469 81.5217 42.7225 81.5217 42.9C81.5217 43.0775 81.4858 43.2531 81.4162 43.4164C81.3466 43.5796 81.2447 43.7271 81.1167 43.85C80.9926 43.976 80.8447 44.076 80.6817 44.1443C80.5186 44.2126 80.3435 44.2478 80.1667 44.2478C79.9899 44.2478 79.8148 44.2126 79.6517 44.1443C79.4886 44.076 79.3408 43.976 79.2167 43.85L74.1167 38.75L75 35.8167Z" fill="#FFDD67"/>
<path id="Vector_24" d="M104.783 67.5167C104.525 67.7642 104.182 67.9024 103.825 67.9024C103.468 67.9024 103.124 67.7642 102.866 67.5167L84.6998 49.3334C84.574 49.2042 84.4748 49.0516 84.4079 48.8841C84.3411 48.7166 84.3079 48.5377 84.3102 48.3574C84.3125 48.1771 84.3503 47.999 84.4214 47.8333C84.4926 47.6676 84.5957 47.5175 84.7248 47.3917C84.8539 47.2658 85.0066 47.1667 85.1741 47.0998C85.3415 47.033 85.5205 46.9997 85.7008 47.0021C85.8811 47.0044 86.0592 47.0422 86.2249 47.1133C86.3906 47.1845 86.5406 47.2876 86.6665 47.4167L104.783 65.6C105.031 65.8577 105.169 66.2011 105.169 66.5584C105.169 66.9156 105.031 67.259 104.783 67.5167Z" fill="#FF7D3F"/>
<path id="Vector_25" d="M111.55 72.3667L117.833 78.65L114.9 79.5333L109.633 74.2833C109.379 74.0292 109.236 73.6845 109.236 73.325C109.236 72.9656 109.379 72.6208 109.633 72.3667C109.887 72.1125 110.232 71.9697 110.592 71.9697C110.951 71.9697 111.296 72.1125 111.55 72.3667Z" fill="#FF4B26"/>
<path id="Vector_26" d="M43.1666 96.6667L56.9333 110.417L49.7 113.333C49.2393 113.519 48.7339 113.565 48.2475 113.464C47.7611 113.363 47.3154 113.12 46.9666 112.767L40.8666 106.667C40.513 106.318 40.2704 105.872 40.1696 105.386C40.0687 104.899 40.1141 104.394 40.3 103.933L43.1666 96.6667Z" fill="#FF7D3F"/>
<path id="Vector_27" d="M42.1334 99.3333L40.3001 103.95C40.1178 104.408 40.0743 104.91 40.1751 105.393C40.2758 105.876 40.5164 106.319 40.8667 106.667L42.1834 107.983C42.5322 108.337 42.9779 108.579 43.4643 108.68C43.9507 108.781 44.4561 108.736 44.9167 108.55L46.4834 107.917C46.8176 107.789 47.1145 107.58 47.3466 107.307C47.5787 107.035 47.7386 106.709 47.8116 106.359C47.8847 106.009 47.8685 105.646 47.7645 105.303C47.6605 104.961 47.4722 104.65 47.2167 104.4L42.1334 99.3333Z" fill="#FFBA4E"/>
<path id="Vector_28" d="M74.2843 79.3607L68.8042 84.8408L74.2018 90.2384L79.6819 84.7583L74.2843 79.3607Z" fill="#4E5FB6"/>
<path id="Vector_29" d="M74.2936 79.371L68.8135 84.8511L71.689 87.7266L77.1691 82.2466L74.2936 79.371Z" fill="#6782CF"/>
<path id="Vector_30" d="M112.55 51.8834L110.517 55.7668L97.8833 43.1334L101.783 41.1001C102.425 40.7313 103.172 40.5868 103.905 40.6894C104.639 40.792 105.317 41.1359 105.833 41.6668L111.933 47.7668C112.473 48.2907 112.825 48.9773 112.937 49.721C113.048 50.4647 112.912 51.2244 112.55 51.8834Z" fill="#FF2353"/>
<path id="Vector_31" d="M67.5758 109.703L77.8171 99.4614L81.2229 102.867C81.4556 103.097 81.6397 103.37 81.7642 103.672C81.8888 103.974 81.9513 104.298 81.948 104.625C81.9447 104.952 81.8757 105.274 81.745 105.574C81.6144 105.873 81.4248 106.143 81.1876 106.367L74.4347 113.12C74.2078 113.347 73.9382 113.527 73.6414 113.649C73.3447 113.772 73.0267 113.834 72.7058 113.833C72.3848 113.832 72.0672 113.767 71.7713 113.643C71.4754 113.519 71.2071 113.337 70.9817 113.109L67.564 109.691L67.5758 109.703Z" fill="#3F416A"/>
<path id="Vector_32" d="M77.8106 99.4592L67.5693 109.7L69.8792 112.01L80.1205 101.769L77.8106 99.4592Z" fill="#3A3256"/>
<path id="Vector_33" d="M99.9998 114.883C100.642 115.516 101.077 116.328 101.248 117.213C101.419 118.098 101.316 119.014 100.955 119.839C100.594 120.665 99.9903 121.361 99.2245 121.836C98.4587 122.312 97.5667 122.543 96.6665 122.5C88.4292 122.067 80.6422 118.606 74.7998 112.783L81.0498 106.483C85.3378 110.77 91.0614 113.317 97.1165 113.633C98.1987 113.681 99.2253 114.126 99.9998 114.883Z" fill="#4E5FB6"/>
<path id="Vector_34" d="M99.9998 114.883C100.642 115.516 101.077 116.328 101.248 117.213C101.419 118.098 101.316 119.014 100.955 119.839C100.594 120.665 99.9903 121.361 99.2245 121.836C98.4587 122.312 97.5667 122.543 96.6665 122.5C88.4292 122.067 80.6422 118.606 74.7998 112.783L81.0498 106.483C85.3378 110.77 91.0614 113.317 97.1165 113.633C98.1987 113.681 99.2253 114.126 99.9998 114.883Z" fill="#E1E7F8"/>
<path id="Vector_35" d="M98.0165 117.467C97.2647 117.953 96.3771 118.187 95.4831 118.133C88.5854 117.775 81.9694 115.282 76.5498 111C78.0498 109.5 79.5665 108 81.0498 106.483C85.3378 110.77 91.0614 113.317 97.1165 113.633C97.5474 113.678 97.9538 113.855 98.2791 114.141C98.6044 114.427 98.8324 114.808 98.9314 115.23C99.0304 115.651 98.9955 116.093 98.8315 116.494C98.6675 116.895 98.3826 117.235 98.0165 117.467Z" fill="#C8CEF8"/>
<path id="Vector_36" d="M94.351 46.6805L93.6439 47.3876C92.7522 48.2793 92.7522 49.7251 93.6439 50.6168L103.037 60.0095C103.928 60.9012 105.374 60.9012 106.266 60.0095L106.973 59.3024C107.865 58.4107 107.865 56.965 106.973 56.0733L97.5801 46.6805C96.6884 45.7888 95.2427 45.7888 94.351 46.6805Z" fill="#FFD36C"/>
<path id="Vector_37" d="M52.9495 77.074L55.3065 74.7169L65.6185 85.0289C65.8248 85.2352 65.9407 85.515 65.9407 85.8067C65.9407 86.0985 65.8248 86.3782 65.6185 86.5845L64.77 87.4331C64.5637 87.6394 64.2839 87.7552 63.9921 87.7552C63.7004 87.7552 63.4206 87.6394 63.2143 87.4331L52.9023 77.1211L52.9495 77.074Z" fill="#87CEFF"/>
<path id="Vector_38" d="M55.9845 78.3217L56.6091 77.6971C56.8466 77.4595 57.1688 77.3261 57.5047 77.3261C57.8407 77.3261 58.1629 77.4595 58.4004 77.6971L59.9207 79.2174C60.127 79.4236 60.2429 79.7034 60.2429 79.9952C60.2429 80.2869 60.127 80.5667 59.9207 80.773L59.0722 81.6215C58.8659 81.8278 58.5861 81.9437 58.2943 81.9437C58.0026 81.9437 57.7228 81.8278 57.5165 81.6215L55.9963 80.1012C55.7587 79.8637 55.6253 79.5415 55.6253 79.2056C55.6253 78.8696 55.7587 78.5474 55.9963 78.3099L55.9845 78.3217Z" fill="white"/>
<path id="Vector_39" d="M134.816 115.75C130.774 115.751 126.836 117.038 123.573 119.425C120.31 121.812 117.891 125.175 116.666 129.028C115.441 132.881 115.474 137.024 116.759 140.857C118.045 144.69 120.516 148.015 123.816 150.35C123.816 144.933 123.65 143.517 124.25 141.433C123.127 139.633 122.481 137.576 122.372 135.456C122.264 133.337 122.697 131.225 123.631 129.319C124.565 127.413 125.968 125.776 127.709 124.563C129.45 123.35 131.472 122.599 133.583 122.383C134.393 122.184 135.24 122.184 136.05 122.383C138.167 122.591 140.196 123.337 141.945 124.549C143.693 125.761 145.102 127.4 146.039 129.311C146.976 131.221 147.409 133.339 147.297 135.463C147.185 137.588 146.532 139.649 145.4 141.45C146.016 143.6 145.833 144.917 145.833 150.35C149.134 148.014 151.606 144.688 152.891 140.853C154.176 137.018 154.208 132.874 152.981 129.02C151.754 125.167 149.332 121.804 146.066 119.418C142.801 117.032 138.861 115.747 134.816 115.75Z" fill="#46A6FD"/>
<path id="Vector_40" d="M142.617 136.667C143.917 137.994 144.872 139.619 145.4 141.4C146.527 139.598 147.177 137.538 147.286 135.415C147.396 133.292 146.962 131.176 146.026 129.267C145.09 127.359 143.683 125.72 141.937 124.507C140.191 123.293 138.165 122.545 136.05 122.333C137.403 122.637 138.597 123.429 139.402 124.557C140.208 125.686 140.569 127.072 140.416 128.45C140.263 129.829 139.607 131.102 138.574 132.027C137.541 132.952 136.203 133.463 134.817 133.463C133.43 133.463 132.092 132.952 131.059 132.027C130.026 131.102 129.37 129.829 129.218 128.45C129.065 127.072 129.426 125.686 130.231 124.557C131.037 123.429 132.23 122.637 133.583 122.333C131.473 122.546 129.451 123.294 127.709 124.506C125.968 125.717 124.564 127.352 123.63 129.257C122.695 131.162 122.262 133.274 122.371 135.392C122.479 137.511 123.126 139.567 124.25 141.367C124.791 139.533 125.798 137.872 127.174 136.545C128.549 135.218 130.246 134.271 132.098 133.798C133.95 133.324 135.893 133.339 137.737 133.842C139.58 134.345 141.262 135.318 142.617 136.667Z" fill="#64CEFD"/>
<path id="Vector_41" d="M136.05 122.383C135.24 122.183 134.394 122.183 133.583 122.383C134.404 122.3 135.23 122.3 136.05 122.383Z" fill="#493C88"/>
<path id="Vector_42" d="M129.183 127.867C129.181 128.928 129.478 129.969 130.042 130.869C130.605 131.769 131.412 132.492 132.368 132.953C133.324 133.415 134.391 133.597 135.447 133.478C136.502 133.359 137.502 132.945 138.332 132.282C139.161 131.619 139.787 130.736 140.136 129.733C140.486 128.73 140.544 127.649 140.306 126.615C140.067 125.58 139.541 124.634 138.788 123.885C138.035 123.136 137.086 122.616 136.05 122.383C135.23 122.3 134.403 122.3 133.583 122.383C132.337 122.663 131.222 123.358 130.423 124.354C129.623 125.351 129.186 126.589 129.183 127.867Z" fill="#493C88"/>
<path id="Vector_43" d="M145.4 141.45C144.277 143.241 142.717 144.717 140.867 145.74C139.018 146.763 136.939 147.3 134.825 147.3C132.711 147.3 130.632 146.763 128.782 145.74C126.933 144.717 125.373 143.241 124.25 141.45C123.633 143.617 123.817 144.883 123.817 150.367C127.032 152.653 130.88 153.881 134.825 153.881C138.77 153.881 142.618 152.653 145.833 150.367C145.833 144.333 145.967 143.433 145.4 141.45ZM129.583 134.817C129.151 135.058 128.733 135.325 128.333 135.617C128.733 135.339 129.15 135.072 129.583 134.817ZM124.817 140C124.614 140.463 124.436 140.935 124.283 141.417C124.433 140.935 124.611 140.462 124.817 140Z" fill="#352D5B"/>
<path id="Vector_44" d="M143.7 138.017C143.6 137.883 143.517 137.75 143.4 137.617C143.509 137.743 143.609 137.877 143.7 138.017ZM134.667 133.5C136.174 133.464 137.672 133.742 139.067 134.316C140.461 134.89 141.721 135.747 142.767 136.833C141.722 135.745 140.463 134.887 139.068 134.313C137.673 133.739 136.174 133.462 134.667 133.5ZM124.25 141.417C124.25 141.417 124.25 141.417 124.25 141.317C124.25 141.217 124.25 141.383 124.25 141.417Z" fill="#493C88"/>
<path id="Vector_45" d="M145.4 141.45C142.35 130.767 127.25 131.033 124.25 141.45C125.376 143.237 126.937 144.709 128.786 145.73C130.635 146.75 132.713 147.285 134.825 147.285C136.937 147.285 139.015 146.75 140.864 145.73C142.713 144.709 144.274 143.237 145.4 141.45Z" fill="#493C88"/>
<path id="Vector_46" d="M123.817 40.7499C123.817 35.3332 123.65 33.8999 124.25 31.8332C123.123 30.0321 122.474 27.9735 122.363 25.8517C122.253 23.73 122.685 21.6151 123.619 19.7068C124.553 17.7985 125.959 16.1599 127.702 14.9455C129.445 13.7312 131.47 12.9812 133.583 12.7665C134.395 12.5832 135.238 12.5832 136.05 12.7665C138.168 12.9773 140.197 13.7252 141.944 14.9395C143.692 16.1538 145.101 17.7942 146.037 19.7053C146.974 21.6165 147.407 23.7351 147.295 25.8604C147.184 27.9856 146.531 30.0473 145.4 31.8499C146.017 33.9999 145.833 35.2999 145.833 40.7499C149.138 38.4131 151.613 35.0853 152.901 31.2482C154.189 27.4112 154.222 23.2639 152.996 19.4066C151.77 15.5494 149.348 12.1824 146.081 9.7929C142.815 7.40343 138.872 6.11548 134.825 6.11548C130.778 6.11548 126.835 7.40343 123.568 9.7929C120.302 12.1824 117.88 15.5494 116.654 19.4066C115.428 23.2639 115.461 27.4112 116.749 31.2482C118.037 35.0853 120.512 38.4131 123.817 40.7499Z" fill="#46A6FD"/>
<path id="Vector_47" d="M142.617 27.0999C143.916 28.4278 144.871 30.0525 145.4 31.8333C146.528 30.031 147.177 27.971 147.286 25.848C147.396 23.725 146.962 21.6092 146.026 19.7005C145.09 17.7919 143.683 16.1534 141.937 14.9401C140.192 13.7268 138.165 12.9787 136.05 12.7666C137.403 13.0702 138.597 13.8621 139.402 14.9908C140.208 16.1194 140.569 17.5055 140.416 18.8837C140.263 20.2619 139.608 21.5353 138.574 22.4603C137.541 23.3852 136.204 23.8966 134.817 23.8966C133.43 23.8966 132.092 23.3852 131.059 22.4603C130.026 21.5353 129.371 20.2619 129.218 18.8837C129.065 17.5055 129.426 16.1194 130.232 14.9908C131.037 13.8621 132.231 13.0702 133.584 12.7666C131.472 12.9827 129.451 13.7328 127.71 14.9461C125.969 16.1595 124.565 17.7962 123.631 19.702C122.698 21.6078 122.264 23.7199 122.373 25.8394C122.481 27.9589 123.127 30.0159 124.25 31.8166C124.789 29.982 125.795 28.3187 127.169 26.99C128.544 25.6612 130.241 24.7126 132.093 24.237C133.945 23.7614 135.888 23.7752 137.733 24.2771C139.578 24.779 141.261 25.7517 142.617 27.0999Z" fill="#64CEFD"/>
<path id="Vector_48" d="M136.05 12.7667C135.239 12.5752 134.395 12.5752 133.583 12.7667C134.404 12.6834 135.23 12.6834 136.05 12.7667Z" fill="#493C88"/>
<path id="Vector_49" d="M129.183 18.3334C129.181 19.3953 129.478 20.4362 130.042 21.3362C130.605 22.2362 131.412 22.9586 132.368 23.4201C133.324 23.8817 134.391 24.0635 135.447 23.9447C136.502 23.826 137.502 23.4114 138.332 22.7488C139.161 22.0862 139.787 21.2026 140.136 20.1998C140.486 19.1971 140.544 18.116 140.306 17.0813C140.067 16.0466 139.541 15.1004 138.788 14.3518C138.035 13.6031 137.086 13.0826 136.05 12.8501C135.23 12.7668 134.403 12.7668 133.583 12.8501C132.337 13.1298 131.222 13.8248 130.423 14.8211C129.623 15.8175 129.186 17.056 129.183 18.3334Z" fill="#493C88"/>
<path id="Vector_50" d="M145.4 31.8499C144.274 33.6367 142.713 35.1091 140.864 36.1295C139.015 37.1499 136.937 37.6851 134.825 37.6851C132.713 37.6851 130.635 37.1499 128.786 36.1295C126.937 35.1091 125.376 33.6367 124.25 31.8499C123.633 33.9999 123.817 35.2832 123.817 40.7666C127.034 43.0477 130.881 44.273 134.825 44.273C138.769 44.273 142.616 43.0477 145.833 40.7666C145.833 34.7332 145.967 33.8166 145.4 31.8499ZM145.383 31.7999C145.264 31.3804 145.119 30.9686 144.95 30.5666C145.122 30.9676 145.266 31.3796 145.383 31.7999Z" fill="#352D5B"/>
<path id="Vector_51" d="M134.667 23.8999C136.174 23.8631 137.673 24.1405 139.067 24.7143C140.462 25.2882 141.722 26.146 142.767 27.2333C141.725 26.1419 140.466 25.2813 139.07 24.7071C137.675 24.1329 136.175 23.858 134.667 23.8999ZM124.25 31.8166C124.25 31.8166 124.25 31.8166 124.25 31.7166C124.237 31.7487 124.237 31.7845 124.25 31.8166ZM143.7 28.3333C143.6 28.1999 143.517 28.0666 143.4 27.9333C143.517 28.1333 143.6 28.3333 143.7 28.3333Z" fill="#493C88"/>
<path id="Vector_52" d="M145.4 31.8499C142.367 21.1666 127.267 21.4166 124.25 31.8499C125.376 33.6368 126.937 35.1091 128.786 36.1295C130.635 37.15 132.713 37.6851 134.825 37.6851C136.937 37.6851 139.015 37.15 140.864 36.1295C142.713 35.1091 144.274 33.6368 145.4 31.8499Z" fill="#493C88"/>
<path id="Vector_53" d="M25.1499 115.75C21.1071 115.751 17.1694 117.038 13.9065 119.425C10.6436 121.812 8.22476 125.175 6.99988 129.028C5.77499 132.881 5.8076 137.024 7.09299 140.857C8.37838 144.69 10.8499 148.015 14.1499 150.35C14.1499 144.933 13.9833 143.517 14.5833 141.433C13.4602 139.633 12.8141 137.576 12.7058 135.456C12.5975 133.337 13.0306 131.225 13.9644 129.319C14.8981 127.413 16.3017 125.776 18.0428 124.563C19.784 123.35 21.8054 122.599 23.9166 122.383C24.7323 122.183 25.5842 122.183 26.3999 122.383C28.5116 122.602 30.5328 123.355 32.2735 124.57C34.0142 125.785 35.4172 127.423 36.3506 129.33C37.2839 131.237 37.717 133.35 37.609 135.47C37.501 137.59 36.8556 139.648 35.7333 141.45C36.35 143.6 36.1666 144.917 36.1666 150.35C39.4678 148.014 41.9399 144.688 43.2249 140.853C44.5099 137.018 44.5412 132.874 43.3142 129.02C42.0872 125.167 39.6656 121.804 36.4 119.418C33.1344 117.032 29.1942 115.747 25.1499 115.75Z" fill="#46A6FD"/>
<path id="Vector_54" d="M32.9498 136.667C34.2549 137.99 35.2112 139.616 35.7331 141.4C36.8602 139.599 37.5095 137.54 37.6198 135.418C37.7302 133.297 37.2979 131.182 36.3637 129.274C35.4296 127.365 34.0245 125.727 32.2811 124.512C30.5377 123.298 28.5136 122.548 26.3998 122.333C27.7516 122.639 28.9434 123.432 29.7472 124.561C30.551 125.69 30.9104 127.075 30.7567 128.453C30.603 129.83 29.947 131.102 28.9142 132.026C27.8813 132.951 26.544 133.461 25.1581 133.461C23.7722 133.461 22.435 132.951 21.4021 132.026C20.3692 131.102 19.7132 129.83 19.5595 128.453C19.4059 127.075 19.7653 125.69 20.5691 124.561C21.3729 123.432 22.5647 122.639 23.9165 122.333C21.8057 122.546 19.784 123.294 18.0424 124.506C16.3008 125.717 14.8966 127.352 13.9626 129.257C13.0285 131.162 12.5953 133.274 12.7039 135.392C12.8124 137.511 13.4592 139.567 14.5831 141.367C15.1236 139.533 16.131 137.872 17.5067 136.545C18.8825 135.218 20.5793 134.271 22.4309 133.798C24.2826 133.324 26.2256 133.339 28.0695 133.842C29.9135 134.345 31.5952 135.318 32.9498 136.667Z" fill="#64CEFD"/>
<path id="Vector_55" d="M26.3998 122.383C25.5841 122.183 24.7322 122.183 23.9165 122.383C24.7422 122.3 25.5742 122.3 26.3998 122.383Z" fill="#493C88"/>
<path id="Vector_56" d="M19.5332 127.867C19.5307 128.928 19.8284 129.969 20.3918 130.869C20.9553 131.769 21.7617 132.492 22.718 132.953C23.6743 133.415 24.7415 133.597 25.7967 133.478C26.8519 133.359 27.852 132.945 28.6817 132.282C29.5115 131.619 30.1371 130.736 30.4864 129.733C30.8357 128.73 30.8944 127.649 30.6559 126.615C30.4174 125.58 29.8913 124.634 29.1383 123.885C28.3852 123.136 27.436 122.616 26.3999 122.383C25.5742 122.3 24.7422 122.3 23.9166 122.383C22.6717 122.663 21.5594 123.359 20.7627 124.356C19.966 125.352 19.5324 126.591 19.5332 127.867Z" fill="#493C88"/>
<path id="Vector_57" d="M35.7333 141.45C34.6072 143.237 33.0466 144.709 31.1974 145.73C29.3481 146.75 27.2704 147.285 25.1583 147.285C23.0462 147.285 20.9686 146.75 19.1193 145.73C17.27 144.709 15.7095 143.237 14.5833 141.45C13.9667 143.617 14.15 144.883 14.15 150.367C17.3656 152.653 21.2131 153.881 25.1583 153.881C29.1036 153.881 32.9511 152.653 36.1667 150.367C36.1667 144.333 36.3 143.433 35.7333 141.45ZM20 134.817C19.5706 135.054 19.1585 135.321 18.7667 135.617C19.1624 135.327 19.5742 135.06 20 134.817ZM35.15 139.883C35.0167 139.6 34.8833 139.333 34.7333 139.067C34.8833 139.333 35 139.6 35.15 139.883Z" fill="#352D5B"/>
<path id="Vector_58" d="M35.2835 140.167C35.2835 140.067 35.1835 139.983 35.1502 139.883C35.1168 139.783 35.2502 140 35.2835 140.167ZM25.0002 133.5C26.5099 133.465 28.0106 133.743 29.4076 134.317C30.8045 134.89 32.0675 135.747 33.1168 136.833C32.0693 135.745 30.8067 134.886 29.4093 134.312C28.0119 133.739 26.5103 133.462 25.0002 133.5ZM14.5835 141.417C14.5835 141.417 14.5835 141.417 14.5835 141.317V141.417Z" fill="#493C88"/>
<path id="Vector_59" d="M35.7335 141.45C32.6835 130.817 17.6502 130.983 14.5835 141.45C15.7096 143.237 17.2702 144.709 19.1194 145.73C20.9687 146.75 23.0464 147.285 25.1585 147.285C27.2706 147.285 29.3483 146.75 31.1975 145.73C33.0468 144.709 34.6074 143.237 35.7335 141.45Z" fill="#493C88"/>
<path id="Vector_60" d="M25.15 6.1333C21.1081 6.14037 17.173 7.43172 13.9129 9.82094C10.6527 12.2102 8.23613 15.5736 7.01207 19.4257C5.788 23.2778 5.81976 27.4193 7.10275 31.2521C8.38575 35.085 10.8536 38.411 14.15 40.75C14.15 35.3333 13.9834 33.9 14.5834 31.8333C13.4564 30.0322 12.807 27.9736 12.6967 25.8518C12.5863 23.73 13.0186 21.6152 13.9528 19.7069C14.8869 17.7986 16.292 16.1599 18.0354 14.9456C19.7788 13.7313 21.8029 12.9813 23.9167 12.7666C24.7343 12.583 25.5824 12.583 26.4 12.7666C28.5142 12.9843 30.5381 13.7366 32.2811 14.9529C34.024 16.1691 35.4286 17.8091 36.3623 19.7183C37.2961 21.6275 37.7283 23.7431 37.6183 25.8656C37.5082 27.988 36.8596 30.0475 35.7334 31.85C36.35 34 36.1667 35.3 36.1667 40.75C39.4643 38.4102 41.9327 35.0827 43.2153 31.2482C44.4979 27.4137 44.5283 23.2707 43.3021 19.4178C42.0759 15.5649 39.6567 12.2015 36.3938 9.81359C33.1309 7.42567 29.1934 6.13684 25.15 6.1333Z" fill="#46A6FD"/>
<path id="Vector_61" d="M32.9499 27.0999C34.2479 28.4286 35.2031 30.0531 35.7332 31.8333C36.8602 30.0322 37.5096 27.9736 37.6199 25.8518C37.7303 23.73 37.298 21.6151 36.3638 19.7069C35.4297 17.7986 34.0246 16.1599 32.2812 14.9456C30.5378 13.7312 28.5137 12.9813 26.3999 12.7666C27.7517 13.0721 28.9435 13.8651 29.7473 14.9941C30.5511 16.1231 30.9105 17.5087 30.7568 18.8861C30.6031 20.2634 29.9471 21.5358 28.9142 22.4598C27.8814 23.3839 26.5441 23.8947 25.1582 23.8947C23.7723 23.8947 22.4351 23.3839 21.4022 22.4598C20.3693 21.5358 19.7133 20.2634 19.5596 18.8861C19.406 17.5087 19.7654 16.1231 20.5692 14.9941C21.373 13.8651 22.5648 13.0721 23.9166 12.7666C21.8054 12.9827 19.7839 13.7328 18.0428 14.9461C16.3016 16.1595 14.898 17.7962 13.9643 19.702C13.0306 21.6078 12.5975 23.7199 12.7057 25.8394C12.814 27.9589 13.4601 30.0159 14.5832 31.8166C15.1216 29.982 16.1276 28.3187 17.5024 26.99C18.8772 25.6612 20.5738 24.7126 22.4257 24.237C24.2776 23.7614 26.2213 23.7752 28.0663 24.2771C29.9112 24.779 31.5941 25.7517 32.9499 27.0999Z" fill="#64CEFD"/>
<path id="Vector_62" d="M26.3999 12.7666C25.5832 12.5749 24.7332 12.5749 23.9166 12.7666C24.7422 12.6833 25.5742 12.6833 26.3999 12.7666ZM19.5332 18.3333C19.5307 19.3951 19.8284 20.436 20.3918 21.336C20.9553 22.236 21.7617 22.9584 22.718 23.4199C23.6743 23.8815 24.7415 24.0633 25.7967 23.9446C26.8519 23.8258 27.852 23.4112 28.6817 22.7486C29.5115 22.086 30.1371 21.2024 30.4864 20.1997C30.8357 19.1969 30.8944 18.1159 30.6559 17.0812C30.4174 16.0465 29.8913 15.1002 29.1383 14.3516C28.3852 13.603 27.436 13.0824 26.3999 12.8499C25.5742 12.7666 24.7422 12.7666 23.9166 12.8499C22.6717 13.1301 21.5594 13.8258 20.7627 14.8224C19.966 15.8191 19.5324 17.0573 19.5332 18.3333Z" fill="#493C88"/>
<path id="Vector_63" d="M35.7333 31.8499C34.6072 33.6367 33.0466 35.1091 31.1974 36.1295C29.3481 37.1499 27.2704 37.6851 25.1583 37.6851C23.0462 37.6851 20.9686 37.1499 19.1193 36.1295C17.27 35.1091 15.7095 33.6367 14.5833 31.8499C13.9667 33.9999 14.15 35.2832 14.15 40.7666C17.3675 43.0477 21.2142 44.273 25.1583 44.273C29.1025 44.273 32.9492 43.0477 36.1667 40.7666C36.1667 34.7332 36.3 33.8166 35.7333 31.8499ZM35.15 30.2666C35.0167 29.9999 34.8833 29.7332 34.7333 29.4666C34.8833 29.7332 35 29.9999 35.15 30.2666Z" fill="#352D5B"/>
<path id="Vector_64" d="M14.5835 31.8167C14.5835 31.8167 14.5835 31.8167 14.5835 31.7167C14.5705 31.7488 14.5705 31.7846 14.5835 31.8167ZM25.0001 23.9C26.5099 23.865 28.0106 24.143 29.4075 24.7167C30.8045 25.2904 32.0674 26.1473 33.1168 27.2334C32.0712 26.1424 30.8089 25.2822 29.411 24.7082C28.0132 24.1341 26.5107 23.8588 25.0001 23.9ZM35.2835 30.5667C35.2835 30.4667 35.1835 30.3667 35.1501 30.2667C35.1168 30.1667 35.2501 30.4667 35.2835 30.5667Z" fill="#493C88"/>
<path id="Vector_65" d="M35.7335 31.85C32.7168 21.2333 17.6502 21.35 14.5835 31.85C15.7096 33.6368 17.2702 35.1092 19.1194 36.1296C20.9687 37.15 23.0464 37.6852 25.1585 37.6852C27.2706 37.6852 29.3483 37.15 31.1975 36.1296C33.0468 35.1092 34.6074 33.6368 35.7335 31.85Z" fill="#493C88"/>
</g>
<defs>
<clipPath id="clip0_73_4741">
<rect width="160" height="160" fill="white"/>
</clipPath>
</defs>
</svg>
