<svg width="32" height="32" viewBox="0 0 32 32" fill="none" xmlns="http://www.w3.org/2000/svg">
<g id="Competitions">
<path id="Vector" d="M27.6058 23.8838H26.9603V14.9605C26.9603 14.7425 26.7836 14.5658 26.5656 14.5658H19.9716V11.2585C19.9716 11.0404 19.7954 10.8638 19.5774 10.8638H12.5892C12.3711 10.8638 12.1945 11.0404 12.1945 11.2585V17.1868H5.60043C5.38291 17.1868 5.20626 17.3634 5.20626 17.581V23.8838H4.39418C4.17665 23.8838 4 24.0605 4 24.2785V26.5663C4 26.7839 4.17665 26.9605 4.39418 26.9605H27.6058C27.8234 26.9605 28 26.7839 28 26.5663V24.2785C28 24.0605 27.8234 23.8838 27.6058 23.8838ZM19.9716 15.3547H26.1714V23.8838H19.9716V15.3547ZM12.9833 11.6526H19.1832V23.8838H12.9833V11.6526ZM5.99512 17.9757H12.1945V23.8838H5.99512V17.9757ZM27.2111 26.1716H4.78887V24.6727H27.2111L27.2111 26.1716Z" fill="#162F35"/>
<path id="Vector_2" d="M27.2111 24.6726H4.78882V26.1716H27.2111V24.6726Z" fill="#EDBE49"/>
<path id="Vector_3" d="M26.1714 23.8839H19.9716V15.3547C19.9716 20.0692 22.7444 23.8839 26.1714 23.8839Z" fill="#EDBE49"/>
<path id="Vector_4" d="M19.1833 11.6526V23.8837C15.7563 23.8837 12.9834 18.4132 12.9834 11.6526H19.1833Z" fill="#F7D36F"/>
<path id="Vector_5" d="M19.1833 23.8838H12.9834V11.6526C12.9834 18.4132 15.7563 23.8838 19.1833 23.8838Z" fill="#EDBE49"/>
<path id="Vector_6" d="M12.1945 17.9756V23.8837C8.768 23.8837 5.99512 21.2411 5.99512 17.9756H12.1945Z" fill="#F7D36F"/>
<path id="Vector_7" d="M12.1945 23.8837H5.99512V17.9756C5.99512 21.2411 8.768 23.8837 12.1945 23.8837Z" fill="#EDBE49"/>
<path id="Vector_8" d="M8.52698 16.2763C7.61623 16.2764 6.71499 15.7181 6.59611 15.6418C6.40847 15.5214 6.35396 15.2716 6.47442 15.0839C6.59483 14.8963 6.84457 14.8418 7.03231 14.9622C7.33598 15.1559 8.25653 15.6164 8.85494 15.4217C9.08664 15.3463 9.25368 15.1709 9.36561 14.8854C9.5322 14.4606 9.41337 14.2854 9.37428 14.2278C9.11498 13.8455 8.26712 13.7556 7.99057 13.7542C7.83103 13.7534 7.68651 13.6587 7.62243 13.5126C7.55836 13.3664 7.58601 13.1962 7.69355 13.0783L8.82664 11.8363H7.04976C6.82679 11.8363 6.64599 11.6556 6.64599 11.4326C6.64599 11.2096 6.82679 11.0288 7.04976 11.0288H9.74154C9.90147 11.0288 10.0463 11.1232 10.111 11.2695C10.1755 11.4159 10.1476 11.5865 10.0398 11.7047L8.81575 13.0465C9.25398 13.1487 9.75711 13.3553 10.0413 13.7726C10.2231 14.0396 10.384 14.5006 10.1175 15.1803C9.9172 15.6909 9.56626 16.0401 9.10266 16.1904C8.91537 16.251 8.72087 16.2763 8.52698 16.2763ZM15.9999 10.4568C15.777 10.4568 15.5962 10.276 15.5962 10.053V6.00478L14.4176 6.40036C14.206 6.47148 13.9772 6.35748 13.9063 6.14606C13.8353 5.93466 13.9492 5.70577 14.1606 5.63482L15.8715 5.06056C15.9947 5.01916 16.1302 5.03969 16.2357 5.11555C16.3412 5.1914 16.4037 5.31339 16.4037 5.44334V10.053C16.4037 10.276 16.2229 10.4568 15.9999 10.4568ZM24.6486 13.3679H21.7264C21.5034 13.3679 21.3226 13.1871 21.3226 12.9641C21.3226 12.7803 21.4454 12.6252 21.6134 12.5764C21.7622 12.4912 22.3181 12.063 22.9292 11.4872C23.7618 10.7029 24.018 10.284 24.0371 10.172C24.1024 9.7248 23.852 9.14101 23.3882 9.01887C22.8193 8.86879 22.1432 9.53529 21.7909 9.94581C21.6458 10.115 21.3908 10.1346 21.2216 9.98935C21.0523 9.84415 21.0329 9.58923 21.1781 9.42C22.0105 8.44969 22.846 8.04102 23.5939 8.23795C24.5108 8.47948 24.9526 9.49062 24.8361 10.2889C24.8139 10.4413 24.7462 10.9051 23.3886 12.1632C23.2426 12.2984 23.0924 12.4327 22.9444 12.5603H24.6486C24.8716 12.5603 25.0524 12.7411 25.0524 12.9641C25.0524 13.1871 24.8716 13.3679 24.6486 13.3679Z" fill="#E96464"/>
<path id="Vector_9" d="M26.1714 15.3547V23.8839C22.7444 23.8839 19.9716 20.0692 19.9716 15.3547H26.1714Z" fill="#F7D36F"/>
</g>
</svg>
