<svg width="20" height="20" viewBox="0 0 20 20" fill="none" xmlns="http://www.w3.org/2000/svg">
<g id="refresh">
<path id="Vector" d="M14.1434 8.26953L16.2829 8.76875C16.5534 8.83463 16.8442 8.74145 17.0407 8.54972C17.0994 8.56417 18.1622 6.68404 18.2218 6.61208C18.4477 6.23156 18.3199 5.74119 17.9362 5.51682C17.5531 5.29404 17.0589 5.41951 16.8324 5.80003L16.5699 6.24204C13.6049 0.976968 5.58891 1.33634 3.10015 6.8881C2.68298 7.85357 4.11038 8.49725 4.56871 7.548C6.45679 3.27869 12.6482 2.88678 15.0574 6.8402L14.5123 6.71307C13.4771 6.48903 13.1159 8.01213 14.1434 8.26953ZM2.84347 11.5771L1.78379 13.3616C1.26338 14.2729 2.61427 15.0721 3.1731 14.1736L3.43558 13.7316C4.76257 16.0349 7.23275 17.5 10.0028 17.5C12.9703 17.5 15.6796 15.7671 16.9054 13.0857C17.0891 12.6838 16.9096 12.2096 16.5039 12.0274C16.0979 11.8452 15.6206 12.0233 15.4369 12.4256C14.4719 14.5365 12.3389 15.9008 10.0028 15.9008C7.90178 15.9008 6.01728 14.8327 4.94814 13.1336L5.49322 13.2606C6.5282 13.4857 6.88968 11.961 5.86216 11.7041L3.72261 11.2049C3.38659 11.1297 3.01884 11.2798 2.84347 11.5771Z" fill="url(#paint0_linear_29_541)"/>
</g>
<defs>
<linearGradient id="paint0_linear_29_541" x1="10.0001" y1="5.6875" x2="11.5033" y2="14.8149" gradientUnits="userSpaceOnUse">
<stop stop-color="#D8277C"/>
<stop offset="1" stop-color="#B71FFF"/>
</linearGradient>
</defs>
</svg>
