<svg width="20" height="20" viewBox="0 0 20 20" fill="none" xmlns="http://www.w3.org/2000/svg">
<g id="Icon/Solid/reply">
<path id="Icon" fill-rule="evenodd" clip-rule="evenodd" d="M7.70711 3.29289C8.09763 3.68342 8.09763 4.31658 7.70711 4.70711L5.41421 7H11C14.866 7 18 10.134 18 14V16C18 16.5523 17.5523 17 17 17C16.4477 17 16 16.5523 16 16V14C16 11.2386 13.7614 9 11 9H5.41421L7.70711 11.2929C8.09763 11.6834 8.09763 12.3166 7.70711 12.7071C7.31658 13.0976 6.68342 13.0976 6.29289 12.7071L2.29289 8.70711C1.90237 8.31658 1.90237 7.68342 2.29289 7.29289L6.29289 3.29289C6.68342 2.90237 7.31658 2.90237 7.70711 3.29289Z" fill="url(#paint0_linear_29_536)"/>
</g>
<defs>
<linearGradient id="paint0_linear_29_536" x1="10" y1="5.975" x2="11.366" y2="14.5063" gradientUnits="userSpaceOnUse">
<stop stop-color="#D8277C"/>
<stop offset="1" stop-color="#B71FFF"/>
</linearGradient>
</defs>
</svg>
