<svg width="33" height="32" viewBox="0 0 33 32" fill="none" xmlns="http://www.w3.org/2000/svg">
<g id="3 Star Medal">
<path id="Vector" d="M16.7269 29.0712C15.9442 29.0712 15.3277 28.5977 14.8322 28.2172C14.5665 28.0132 14.2918 27.8021 14.1043 27.752C13.8963 27.6963 13.5398 27.7424 13.195 27.787C12.5541 27.8698 11.8277 27.9637 11.1715 27.584C10.5071 27.1996 10.2124 26.4883 9.97561 25.9168C9.84441 25.6002 9.70882 25.2729 9.56347 25.1276C9.41811 24.9822 9.09077 24.8466 8.77426 24.7155C8.2028 24.4787 7.49157 24.1839 7.10721 23.5197C6.72759 22.8635 6.8214 22.1371 6.90427 21.4962C6.94881 21.1514 6.99489 20.7948 6.93936 20.587C6.88924 20.3995 6.67826 20.1248 6.47424 19.8592C6.0937 19.3636 5.6201 18.7472 5.6201 17.9645C5.6201 17.1818 6.09365 16.5653 6.47418 16.0698C6.67826 15.8041 6.88924 15.5293 6.93936 15.3418C6.99495 15.134 6.94887 14.7774 6.90433 14.4327C6.82151 13.7917 6.72765 13.0653 7.10738 12.4091C7.49173 11.7448 8.20303 11.45 8.77458 11.2132C9.0911 11.082 9.41844 10.9464 9.56379 10.8011C9.70914 10.6558 9.84477 10.3284 9.97594 10.0119C10.2127 9.44048 10.5075 8.72919 11.1718 8.3449C11.8281 7.96516 12.5545 8.05903 13.1953 8.14195C13.5401 8.18644 13.8966 8.23252 14.1045 8.17704C14.2919 8.12692 14.5666 7.91595 14.8323 7.71187C15.3277 7.33122 15.9443 6.85767 16.7269 6.85767C17.5096 6.85767 18.1261 7.33122 18.6216 7.71175C18.8874 7.91575 19.1621 8.1268 19.3496 8.17693C19.5573 8.23258 19.9139 8.18639 20.2588 8.1419C20.8997 8.05919 21.6261 7.96527 22.2823 8.34495C22.9467 8.72936 23.2414 9.44059 23.4782 10.0122C23.6094 10.3287 23.745 10.6561 23.8904 10.8014C24.0357 10.9467 24.3631 11.0824 24.6796 11.2135C25.251 11.4503 25.9623 11.745 26.3466 12.4093C26.7263 13.0655 26.6324 13.7919 26.5496 14.4328C26.5051 14.7776 26.459 15.1341 26.5145 15.3419C26.5646 15.5294 26.7756 15.8041 26.9797 16.0698C27.3602 16.5653 27.8337 17.1818 27.8337 17.9645C27.8337 18.7472 27.3602 19.3637 26.9796 19.8592C26.7756 20.1249 26.5646 20.3996 26.5144 20.5871C26.4588 20.795 26.5049 21.1515 26.5494 21.4963C26.6323 22.1372 26.7261 22.8636 26.3464 23.5199C25.962 24.1842 25.2507 24.4789 24.6792 24.7157C24.3627 24.8469 24.0354 24.9826 23.89 25.1279C23.7445 25.2732 23.609 25.6006 23.4778 25.917C23.241 26.4885 22.9463 27.1998 22.2819 27.5841C21.6257 27.9637 20.8993 27.8699 20.2584 27.7871C19.9136 27.7426 19.5571 27.6965 19.3493 27.752C19.1618 27.8021 18.8871 28.0131 18.6215 28.2172C18.1262 28.5977 17.5096 29.0712 16.7269 29.0712Z" fill="#B70445"/>
<path id="Vector_2" d="M16.7269 28.1745C16.0074 28.1745 15.4407 27.7391 14.9852 27.3894C14.7409 27.2018 14.4884 27.0078 14.316 26.9618C14.1249 26.9106 13.7971 26.953 13.4802 26.994C12.8911 27.07 12.2233 27.1564 11.6201 26.8073C11.0094 26.4539 10.7385 25.8001 10.5208 25.2748C10.4002 24.9838 10.2755 24.6828 10.1419 24.5493C10.0083 24.4157 9.70739 24.2909 9.41643 24.1704C8.89112 23.9528 8.23732 23.6818 7.884 23.0712C7.53503 22.468 7.62126 21.8003 7.69745 21.2111C7.73839 20.8941 7.78075 20.5664 7.7297 20.3754C7.68362 20.203 7.4897 19.9505 7.30214 19.7063C6.95234 19.2508 6.51697 18.684 6.51697 17.9646C6.51697 17.2451 6.95228 16.6783 7.30209 16.2229C7.48969 15.9787 7.68362 15.7261 7.7297 15.5537C7.7808 15.3627 7.73845 15.0349 7.6975 14.718C7.62137 14.1288 7.5351 13.461 7.88416 12.8578C8.23747 12.2471 8.89136 11.9762 9.4167 11.7585C9.70766 11.6379 10.0086 11.5132 10.1422 11.3796C10.2758 11.2461 10.4005 10.9451 10.521 10.6542C10.7388 10.1289 11.0097 9.47501 11.6204 9.12178C12.2236 8.7727 12.8914 8.85898 13.4805 8.93522C13.7974 8.97611 14.1252 9.01847 14.3162 8.96747C14.4885 8.9214 14.741 8.72747 14.9852 8.53986C15.4407 8.18995 16.0074 7.75464 16.7269 7.75464C17.4464 7.75464 18.0131 8.18995 18.4686 8.53976C18.7129 8.7273 18.9654 8.9213 19.1378 8.96737C19.3288 9.01852 19.6565 8.97606 19.9736 8.93517C20.5627 8.85917 21.2305 8.77281 21.8337 9.12182C22.4444 9.47519 22.7153 10.129 22.933 10.6544C23.0536 10.9454 23.1783 11.2463 23.3119 11.3798C23.4455 11.5134 23.7464 11.6382 24.0374 11.7587C24.5627 11.9764 25.2165 12.2473 25.5698 12.8579C25.9188 13.4611 25.8325 14.1289 25.7564 14.718C25.7155 15.035 25.6731 15.3627 25.7242 15.5538C25.7702 15.7261 25.9642 15.9786 26.1518 16.2228C26.5015 16.6784 26.9368 17.2451 26.9368 17.9646C26.9368 18.684 26.5015 19.2508 26.1517 19.7063C25.9641 19.9505 25.7702 20.2031 25.7241 20.3754C25.673 20.5665 25.7153 20.8942 25.7563 21.2112C25.8324 21.8004 25.9187 22.4681 25.5696 23.0714C25.2163 23.682 24.5624 23.953 24.0371 24.1706C23.7461 24.2912 23.4452 24.4159 23.3115 24.5495C23.1778 24.6831 23.0532 24.984 22.9327 25.2749C22.715 25.8002 22.444 26.4541 21.8333 26.8074C21.2301 27.1564 20.5623 27.0701 19.9732 26.994C19.6563 26.9531 19.3286 26.9107 19.1375 26.9617C18.9652 27.0078 18.7127 27.2017 18.4685 27.3893C18.0131 27.7391 17.4464 28.1745 16.7269 28.1745Z" fill="#FF0B57"/>
<path id="Vector_3" d="M20.6561 11.1404H12.7741L8.83304 17.9664L12.7741 24.7924H20.6561L24.597 17.9664L20.6561 11.1404Z" fill="#000C33"/>
<path id="Vector_4" d="M20.0389 12.2092L21.2732 10.0713H12.1569L13.3912 12.2092H20.0389Z" fill="#EFA459"/>
<path id="Vector_5" d="M23.3627 17.9662H25.8314L21.2732 10.0713L20.0389 12.2092L23.3627 17.9662Z" fill="#E5893C"/>
<path id="Vector_6" d="M23.3627 17.9663L20.0389 23.7233L21.2732 25.8613L25.8314 17.9663H23.3627Z" fill="#CC7629"/>
<path id="Vector_7" d="M13.3912 23.7234L12.1569 25.8613H21.2732L20.0389 23.7234H13.3912Z" fill="#E5893C"/>
<path id="Vector_8" d="M10.0674 17.9663H7.5988L12.1569 25.8613L13.3912 23.7233L10.0674 17.9663Z" fill="#EFA459"/>
<path id="Vector_9" d="M13.3912 12.2092L12.1569 10.0713L7.5988 17.9662H10.0674L13.3912 12.2092Z" fill="#FFE8B6"/>
<path id="Vector_10" d="M16.6897 22.6919C19.3005 22.6919 21.417 20.5754 21.417 17.9646C21.417 15.3538 19.3005 13.2373 16.6897 13.2373C14.0789 13.2373 11.9624 15.3538 11.9624 17.9646C11.9624 20.5754 14.0789 22.6919 16.6897 22.6919Z" fill="#000C33"/>
<path id="Vector_11" d="M13.3619 17.9829L11.468 20.5701C11.419 20.6358 11.3905 20.7145 11.3861 20.7963C11.3816 20.8782 11.4015 20.9595 11.4431 21.0301L16.7209 17.9829L13.3619 17.9829Z" fill="#F79F3E"/>
<path id="Vector_12" d="M11.4431 14.9358C11.4015 15.0064 11.3816 15.0877 11.3861 15.1696C11.3905 15.2514 11.419 15.3301 11.468 15.3958L13.3619 17.9829H16.7209L11.4431 14.9358Z" fill="#FFE8B6"/>
<path id="Vector_13" d="M16.7238 17.978L16.7212 11.8887C16.6392 11.8879 16.5588 11.9114 16.4901 11.9561C16.4214 12.0009 16.3674 12.0649 16.335 12.1403L15.0414 15.074L16.7209 17.983L16.7238 17.978Z" fill="#FFE8B6"/>
<path id="Vector_14" d="M16.7209 17.9828L16.7238 17.9811V17.9778L16.7209 17.9828Z" fill="#FFE8B6"/>
<path id="Vector_15" d="M15.0414 15.0741L11.8539 14.7275C11.7725 14.7179 11.6901 14.7325 11.617 14.7696C11.5439 14.8067 11.4834 14.8645 11.4431 14.9359L16.7209 17.983L15.0414 15.0741Z" fill="#F79F3E"/>
<path id="Vector_16" d="M16.7238 17.9829V17.9812L16.7209 17.9829H16.7238Z" fill="#FFE8B6"/>
<path id="Vector_17" d="M16.7238 17.9846V17.9829H16.7209L16.7238 17.9846Z" fill="#FFE8B6"/>
<path id="Vector_18" d="M16.7238 17.988V17.9846L16.7209 17.9829L16.7238 17.988Z" fill="#FFE8B6"/>
<path id="Vector_19" d="M16.7209 17.9829L15.0414 20.8919L16.335 23.8256C16.3678 23.9017 16.4226 23.9663 16.4924 24.0111C16.5621 24.0558 16.6436 24.0787 16.7265 24.0768L16.7238 17.9879L16.7209 17.9829Z" fill="#F79F3E"/>
<path id="Vector_20" d="M11.4431 21.0301C11.4834 21.1014 11.5439 21.1592 11.617 21.1963C11.6901 21.2334 11.7725 21.2481 11.8539 21.2385L15.0414 20.8919L16.7209 17.9829L11.4431 21.0301ZM16.7264 24.0769C16.8074 24.0766 16.8866 24.0527 16.9541 24.0081C17.0217 23.9634 17.0748 23.9 17.1068 23.8257L18.4004 20.8919L16.7238 17.988L16.7264 24.0769Z" fill="#FFE8B6"/>
<path id="Vector_21" d="M16.7238 17.988L18.4004 20.8919L21.5879 21.2385C21.6693 21.2481 21.7517 21.2335 21.8248 21.1964C21.8979 21.1593 21.9584 21.1015 21.9987 21.0301L16.7238 17.9847L16.7238 17.988ZM18.4004 15.074L17.1068 12.1403C17.0744 12.065 17.0206 12.001 16.952 11.9563C16.8834 11.9115 16.8031 11.888 16.7212 11.8887L16.7238 17.978L18.4004 15.074Z" fill="#F79F3E"/>
<path id="Vector_22" d="M16.7238 17.9814L21.9987 14.9359C21.9584 14.8645 21.8979 14.8067 21.8248 14.7696C21.7517 14.7325 21.6693 14.7179 21.5879 14.7275L18.4004 15.0741L16.7238 17.978V17.9814Z" fill="#FFE8B6"/>
<path id="Vector_23" d="M16.7238 17.9813V17.9829H20.0799L21.9738 15.3958C22.0228 15.3301 22.0513 15.2514 22.0557 15.1696C22.0602 15.0877 22.0403 15.0064 21.9987 14.9358L16.7238 17.9813Z" fill="#F79F3E"/>
<path id="Vector_24" d="M16.7238 17.9846L21.9987 21.0301C22.0404 20.9595 22.0602 20.8782 22.0557 20.7963C22.0513 20.7145 22.0228 20.6358 21.9738 20.5701L20.0799 17.9829H16.7238L16.7238 17.9846Z" fill="#FFE8B6"/>
<path id="Vector_25" d="M16.7155 19.5165C17.5598 19.5165 18.2442 18.8321 18.2442 17.9879C18.2442 17.1436 17.5598 16.4592 16.7155 16.4592C15.8713 16.4592 15.1869 17.1436 15.1869 17.9879C15.1869 18.8321 15.8713 19.5165 16.7155 19.5165Z" fill="#FFE8B6"/>
<path id="Vector_26" d="M5.15855 24.7923L10.5971 21.6524L8.73559 19.906L5.15855 24.7923Z" fill="#FFE8B6"/>
<path id="Vector_27" d="M11.1788 24.1376L10.5971 21.6523L5.15855 24.7923L11.1788 24.1376Z" fill="#EFA459"/>
<path id="Vector_28" d="M24.5706 15.6922L27.6191 11.5278L22.8895 14.2585L24.5706 15.6922Z" fill="#E5893C"/>
<path id="Vector_29" d="M22.8895 14.2585L27.6191 11.5278L22.4883 12.0858L22.8895 14.2585Z" fill="#EFA459"/>
<path id="Vector_30" d="M8.82583 15.9629L10.6422 14.2947L5.38087 11.2571L8.82583 15.9629Z" fill="#FFE8B6"/>
<path id="Vector_31" d="M5.38087 11.2571L10.6422 14.2947L11.1788 11.8876L5.38087 11.2571Z" fill="#EFA459"/>
<path id="Vector_32" d="M24.6608 19.9314L22.9346 21.4434L27.8414 24.2764L24.6608 19.9314Z" fill="#CC7629"/>
<path id="Vector_33" d="M27.8414 24.2763L22.9346 21.4434L22.4883 23.6942L27.8414 24.2763Z" fill="#E5893C"/>
<path id="Vector_34" d="M16.9915 3.09323L17.9429 5.02086L20.0702 5.32997C20.1247 5.33789 20.1759 5.3609 20.218 5.3964C20.2601 5.43189 20.2914 5.47846 20.3084 5.53084C20.3254 5.58321 20.3275 5.6393 20.3143 5.69277C20.3011 5.74623 20.2732 5.79494 20.2337 5.83338L18.6944 7.3338L19.0578 9.45247C19.0671 9.50674 19.061 9.56254 19.0403 9.61355C19.0195 9.66456 18.9849 9.70875 18.9404 9.74112C18.8958 9.77349 18.8431 9.79275 18.7882 9.79672C18.7333 9.80069 18.6783 9.78921 18.6296 9.76359L16.7269 8.76329L14.8242 9.76359C14.7755 9.78921 14.7205 9.80068 14.6656 9.79671C14.6107 9.79274 14.558 9.77348 14.5134 9.74112C14.4688 9.70875 14.4342 9.66456 14.4135 9.61355C14.3927 9.56254 14.3867 9.50674 14.396 9.45247L14.7594 7.3338L13.2201 5.83336C13.1806 5.79492 13.1527 5.74621 13.1395 5.69275C13.1263 5.63928 13.1284 5.58319 13.1454 5.53082C13.1624 5.47844 13.1937 5.43187 13.2358 5.39638C13.2779 5.36088 13.3291 5.33787 13.3836 5.32995L15.5109 5.02084L16.4622 3.09323C16.4866 3.04385 16.5243 3.00227 16.5711 2.97319C16.6178 2.94412 16.6718 2.92871 16.7269 2.92871C16.782 2.92871 16.8359 2.94412 16.8827 2.97319C16.9295 3.00227 16.9672 3.04385 16.9915 3.09323Z" fill="#FFCD52"/>
<path id="Vector_35" d="M17.9429 5.02086L16.9915 3.09324C16.9675 3.0436 16.9299 3.0018 16.883 2.97268C16.8362 2.94356 16.7821 2.92831 16.7269 2.92872V6.57821L17.9429 5.02086Z" fill="#F79F3E"/>
<path id="Vector_36" d="M18.6944 7.33384L20.2337 5.83338C20.273 5.79568 20.3009 5.74774 20.3143 5.69499C20.3277 5.64223 20.326 5.58678 20.3095 5.53491L16.7269 6.57823L18.6944 7.33384ZM18.9413 9.74047L16.7269 6.57823L16.7269 8.76333L18.6296 9.76362C18.6784 9.78973 18.7336 9.80141 18.7888 9.79731C18.844 9.79321 18.8969 9.7735 18.9413 9.74047Z" fill="#F79F3E"/>
<path id="Vector_37" d="M16.7269 6.5781L14.7594 7.33371L14.396 9.45238C14.3863 9.50648 14.3921 9.56223 14.4127 9.61318C14.4333 9.66414 14.4679 9.70823 14.5125 9.74038L16.7269 6.5781ZM13.1442 5.53479L16.7269 6.5781L15.5109 5.02075L13.3836 5.32988C13.3283 5.33752 13.2763 5.36089 13.2338 5.39722C13.1914 5.43354 13.1603 5.48129 13.1442 5.53479Z" fill="#F79F3E"/>
<path id="Vector_38" d="M11.3651 5.34894L12.0348 6.70597L13.5324 6.92357C13.5708 6.92914 13.6068 6.94534 13.6365 6.97033C13.6661 6.99532 13.6882 7.02811 13.7001 7.06498C13.7121 7.10185 13.7135 7.14134 13.7043 7.17898C13.695 7.21662 13.6753 7.25091 13.6476 7.27797L12.5639 8.33426L12.8197 9.82578C12.8262 9.86399 12.822 9.90327 12.8074 9.93918C12.7928 9.97509 12.7684 10.0062 12.737 10.029C12.7057 10.0518 12.6686 10.0653 12.6299 10.0681C12.5912 10.0709 12.5525 10.0628 12.5182 10.0448L11.1788 9.3406L9.83929 10.0448C9.80497 10.0628 9.7663 10.0709 9.72763 10.0681C9.68897 10.0653 9.65186 10.0518 9.62049 10.029C9.58913 10.0062 9.56477 9.97508 9.55016 9.93917C9.53556 9.90327 9.53129 9.86399 9.53784 9.82578L9.79365 8.33426L8.70999 7.27796C8.68223 7.2509 8.66259 7.21661 8.6533 7.17897C8.64401 7.14133 8.64544 7.10184 8.65742 7.06497C8.6694 7.0281 8.69146 6.99531 8.7211 6.97032C8.75074 6.94533 8.78678 6.92914 8.82514 6.92356L10.3227 6.70596L10.9925 5.34894C11.0096 5.31418 11.0362 5.28492 11.0691 5.26446C11.102 5.244 11.14 5.23315 11.1788 5.23315C11.2175 5.23315 11.2555 5.244 11.2884 5.26446C11.3214 5.28492 11.3479 5.31418 11.3651 5.34894Z" fill="#FFCD52"/>
<path id="Vector_39" d="M12.0348 6.70601L11.3651 5.34898C11.3482 5.31403 11.3217 5.2846 11.2887 5.2641C11.2557 5.2436 11.2176 5.23287 11.1788 5.23316V7.80235L12.0348 6.70601Z" fill="#F79F3E"/>
<path id="Vector_40" d="M12.5639 8.33411L13.6475 7.2778C13.6751 7.25126 13.6948 7.21751 13.7042 7.18037C13.7137 7.14323 13.7125 7.10419 13.7009 7.06767L11.1787 7.80216L12.5639 8.33411ZM12.7376 10.0284L11.1787 7.80216V9.34045L12.5182 10.0447C12.5526 10.063 12.5914 10.0713 12.6303 10.0684C12.6692 10.0655 12.7064 10.0516 12.7376 10.0284ZM11.1787 7.80216L9.79364 8.33411L9.53784 9.82563C9.53102 9.86371 9.5351 9.90295 9.54961 9.93882C9.56412 9.97469 9.58847 10.0057 9.61986 10.0284L11.1787 7.80216ZM8.65659 7.06768L11.1787 7.80216L10.3227 6.70581L8.82511 6.92341C8.78615 6.92879 8.74955 6.94525 8.71968 6.97082C8.6898 6.99639 8.66792 7.03002 8.65659 7.06768Z" fill="#F79F3E"/>
<path id="Vector_41" d="M22.2426 5.34894L22.9124 6.70597L24.41 6.92357C24.4483 6.92914 24.4844 6.94533 24.514 6.97032C24.5437 6.9953 24.5657 7.02809 24.5777 7.06496C24.5897 7.10183 24.5911 7.14132 24.5819 7.17897C24.5726 7.21661 24.5529 7.2509 24.5252 7.27797L23.4414 8.33426L23.6972 9.82578C23.7038 9.86399 23.6995 9.90327 23.6849 9.93918C23.6703 9.97509 23.646 10.0062 23.6146 10.029C23.5832 10.0518 23.5461 10.0653 23.5074 10.0681C23.4688 10.0709 23.4301 10.0628 23.3958 10.0448L22.0563 9.3406L20.7168 10.0448C20.6825 10.0628 20.6439 10.0709 20.6052 10.0681C20.5665 10.0653 20.5294 10.0518 20.498 10.029C20.4667 10.0062 20.4423 9.97509 20.4277 9.93918C20.4131 9.90327 20.4088 9.86399 20.4154 9.82578L20.6712 8.33426L19.5875 7.27796C19.5598 7.2509 19.5401 7.21661 19.5309 7.17897C19.5216 7.14133 19.523 7.10184 19.535 7.06497C19.5469 7.02809 19.569 6.99531 19.5986 6.97032C19.6283 6.94533 19.6643 6.92913 19.7027 6.92356L21.2003 6.70596L21.87 5.34894C21.8872 5.31418 21.9137 5.28492 21.9467 5.26446C21.9796 5.244 22.0176 5.23315 22.0563 5.23315C22.0951 5.23315 22.1331 5.244 22.166 5.26446C22.1989 5.28492 22.2255 5.31418 22.2426 5.34894Z" fill="#FFCD52"/>
<path id="Vector_42" d="M22.9124 6.70601L22.2426 5.34898C22.2257 5.31403 22.1992 5.2846 22.1662 5.2641C22.1333 5.2436 22.0951 5.23287 22.0563 5.23316V7.80235L22.9124 6.70601Z" fill="#F79F3E"/>
<path id="Vector_43" d="M23.4414 8.33411L24.5251 7.2778C24.5527 7.25126 24.5724 7.21751 24.5818 7.18037C24.5912 7.14323 24.5901 7.10419 24.5785 7.06767L22.0563 7.80216L23.4414 8.33411ZM23.6152 10.0284L22.0563 7.80216V9.34045L23.3958 10.0447C23.4301 10.063 23.469 10.0713 23.5079 10.0684C23.5467 10.0655 23.5839 10.0516 23.6152 10.0284ZM22.0563 7.80216L20.6712 8.33411L20.4154 9.82563C20.4086 9.86371 20.4127 9.90295 20.4272 9.93882C20.4417 9.97469 20.466 10.0057 20.4974 10.0284L22.0563 7.80216ZM19.5341 7.06768L22.0563 7.80216L21.2003 6.70581L19.7027 6.92341C19.6638 6.92879 19.6272 6.94525 19.5973 6.97082C19.5674 6.99639 19.5455 7.03002 19.5341 7.06768Z" fill="#F79F3E"/>
</g>
</svg>
