<svg width="15" height="20" viewBox="0 0 15 20" fill="none" xmlns="http://www.w3.org/2000/svg">
<g id="Rune">
<path id="Vector 9" d="M5.91469 0.644531L7.26271 0L7.83303 0.273438L10.5291 1.54297L12.8363 3.78906L14.1584 5.91797L14.625 12.2266C13.8819 13.5482 12.3282 16.2969 12.0586 16.7188C11.789 17.1406 9.3366 19.082 8.14412 20L7.0294 19.6484L5.47399 18.4375L3.19272 15.7812C2.30268 14.5833 0.475933 12.1328 0.289283 11.9141C0.102634 11.6953 0.626289 7.92969 0.911448 6.07422L1.22253 4.58984L5.91469 0.644531Z" fill="url(#paint0_linear_61_2121)"/>
<g id="Vector 26">
<path d="M5.92509 0.717621L7.26362 0.078125L7.82993 0.349426L10.507 1.60904L12.7979 3.83759L14.1107 5.94986L14.5741 12.2092C13.8362 13.5205 12.2934 16.2477 12.0257 16.6663C11.758 17.0848 9.3229 19.0111 8.13882 19.9219L7.03196 19.5731L5.4875 18.3716L3.22229 15.7361C2.33852 14.5475 0.524634 12.1161 0.339299 11.8991C0.153964 11.6821 0.673932 7.94586 0.957083 6.10489L1.26597 4.63211L5.92509 0.717621Z" fill="url(#paint1_linear_61_2121)" style="mix-blend-mode:darken"/>
</g>
<path id="Vector 22" opacity="0.32" d="M6.20492 0.951329L7.22679 0.3125L8.45816 0.673577L10.8825 2.25676L12.5728 4.30854L13.5351 5.39535L14.2196 11.7844C13.5354 12.9554 12.1051 15.3908 11.8568 15.7646C11.6086 16.1384 9.35089 17.8585 8.25304 18.6719L7.22679 18.3604L5.79481 17.2875L3.69458 14.9339C2.87517 13.8726 1.1934 11.7013 1.02156 11.5075C0.849722 11.3137 0.75903 8.56698 1.02156 6.92299L1.35618 6.19481L6.20492 0.951329Z" fill="url(#paint2_linear_61_2121)"/>
<path id="Vector 23" opacity="0.8" d="M6.27906 7.39376L7.30432 6.99219L7.73808 7.16255L9.7886 7.95353L11.5434 9.35295L12.5489 10.6794L12.9038 14.6099C12.3386 15.4333 11.1569 17.1459 10.9519 17.4088C10.7468 17.6716 8.88164 18.8812 7.97468 19.4531L7.12687 19.2341L5.94388 18.4796L4.20883 16.8246C3.5319 16.0783 2.14254 14.5515 2.00058 14.4152C1.85862 14.2789 2.25689 11.9328 2.47378 10.7767L2.71037 9.85188L6.27906 7.39376Z" fill="url(#paint3_linear_61_2121)"/>
<path id="Vector 10" opacity="0.4" d="M4.17339 5.82031C5.00013 5.30599 6.68902 4.25781 6.83074 4.17969L7.13444 3.90625L7.51406 3.78906L8.19738 4.17969L11.2344 6.15234L11.0066 9.375L11.2344 11.8945L9.41217 15.0977L7.3116 16.2305L6.83074 15.4297L5.1351 14.2578L3.59131 12.3438L3.92031 11.6211V7.98828L4.17339 5.82031Z" fill="url(#paint4_linear_61_2121)"/>
<path id="Vector 11" opacity="0.48" d="M6.93095 1.15234C6.9107 1.13672 6.28137 0.820313 5.96924 0.664063C6.00973 0.632813 6.84659 0.247396 7.25995 0.0585938L7.15872 1.21094C7.09123 1.19792 6.95119 1.16797 6.93095 1.15234Z" fill="url(#paint5_linear_61_2121)"/>
<path id="Vector 12" opacity="0.48" d="M7.23535 0.878906L7.28597 0.078125C7.32646 0.078125 9.42872 1.05469 10.4748 1.54297L10.5001 1.60156C10.3736 1.83594 10.1154 2.30859 10.0952 2.32422C10.0699 2.34375 9.53839 3.98438 9.46246 4.16016C9.40173 4.30078 8.88038 4.375 8.6273 4.39453L8.27298 4.16016L7.51374 3.75V3.39844L7.64028 2.79297L7.23535 1.38672V0.878906Z" fill="url(#paint6_linear_61_2121)"/>
<path id="Vector 13" opacity="0.48" d="M10.4992 1.67969L10.5751 1.64062L12.7769 3.78906L12.5745 4.21875L12.4479 4.53125C12.5323 4.75911 12.6909 5.22266 12.6504 5.25391C12.6099 5.28516 11.7224 5.83984 11.2838 6.11328L10.7776 5.82031L10.0184 5.29297L9.25911 4.76563L9.2085 4.6875L9.46158 4.25781L9.56281 4.08203L9.89181 3.06641L10.0943 2.46094L10.4992 1.67969Z" fill="url(#paint7_linear_61_2121)"/>
<path id="Vector 14" opacity="0.48" d="M13.4361 5.52734L14.0941 5.91797L14.3978 9.72656L14.575 12.207H12.9805L11.3102 11.8164L11.2343 11.5625L11.1837 10.5664V10.3516L11.2343 10L11.0571 9.375L11.2849 6.21094L11.4114 6.13281L11.6645 5.91797L12.7022 5.25391L13.4361 5.52734Z" fill="url(#paint8_linear_61_2121)"/>
<path id="Vector 15" opacity="0.48" d="M12.954 12.2456H14.5484L12.4479 15.9956L11.967 16.7768L11.5115 16.5425C10.8535 16.0607 9.48682 15.144 9.48682 15.0972C9.48682 15.0503 9.84113 14.4201 9.99298 14.1401L11.1318 12.1479C11.1825 12.0698 11.2888 11.9097 11.309 11.894C11.3292 11.8784 12.4141 12.1219 12.954 12.2456Z" fill="url(#paint9_linear_61_2121)"/>
<path id="Vector 16" opacity="0.48" d="M7.20947 17.5781L7.31071 16.2695L9.36066 15.1562L9.4872 15.1953L10.7526 16.0547L11.4865 16.582L11.9421 16.7969L10.9045 17.7344L8.12056 19.9609L7.31071 18.6133L7.20947 17.5781Z" fill="url(#paint10_linear_61_2121)"/>
<path id="Vector 17" opacity="0.48" d="M12.5757 4.43359L12.8035 3.84766L14.0689 5.83984L13.5121 5.50781L12.7022 5.19531L12.5757 4.43359Z" fill="url(#paint11_linear_61_2121)"/>
<path id="Vector 18" opacity="0.48" d="M7.08301 19.1797V19.5898L8.01941 19.9219L7.51325 19.082L7.28547 18.6719L7.08301 19.1797Z" fill="url(#paint12_linear_61_2121)"/>
<path id="Vector 19" opacity="0.48" d="M7.00752 19.1016V19.5508L5.43842 18.3398L3.03415 15.4688L1.92059 14.0039L0.478027 11.9531L1.74343 12.3047L3.515 12.4609L5.03349 14.2969L6.75444 15.4688L7.23529 16.2891C7.20155 16.6667 7.13406 17.4297 7.13406 17.4609C7.13406 17.4922 7.20155 18.2422 7.23529 18.6133L7.00752 19.1016Z" fill="url(#paint13_linear_61_2121)"/>
<path id="Vector 20" opacity="0.48" d="M1.8694 12.2461L0.300293 11.8359L0.958304 6.21094L1.18608 5.09766L1.31262 4.62891L2.17309 4.78516L2.29963 5.09766L4.0712 5.89844L3.84343 7.92969V11.6211L3.46381 12.3438L1.8694 12.2461Z" fill="url(#paint14_linear_61_2121)"/>
<path id="Vector 21" opacity="0.48" d="M2.24898 4.74609L1.33789 4.58984L2.02121 3.96484L5.91866 0.722656L6.93098 1.19141L7.18406 1.44531L7.53837 2.79297L7.43714 3.73047L7.08283 3.86719L6.80444 4.12109L4.1724 5.74219L4.04586 5.80078L2.37552 5.07813L2.24898 4.74609Z" fill="url(#paint15_linear_61_2121)"/>
<path id="Vector 25" opacity="0.08" d="M11.3852 10.1172L11.2334 9.31641V8.4375L11.3852 8.90625L12.0686 9.45312L12.7519 9.57031C12.929 9.6875 13.3036 9.9375 13.3846 10C13.4656 10.0625 14.127 10.599 14.4475 10.8594V12.1094H12.9543L11.5624 11.7578L11.3852 10.8594V10.1172Z" fill="url(#paint16_linear_61_2121)"/>
<path id="Vector 24" opacity="0.2" d="M4.50144 5.76172L7.43718 3.86719L8.70259 4.55078L11.0562 6.13281L10.8791 7.22656C10.4573 7.55859 9.58837 8.24219 9.48714 8.32031C9.3606 8.41797 8.7532 8.63281 7.7915 9.0625C6.82979 9.49219 6.17178 9.53125 5.89339 9.53125C5.67068 9.53125 4.56893 10.3776 4.0459 10.8008V8.22266L4.50144 5.76172Z" fill="url(#paint17_linear_61_2121)"/>
<path id="Symbol" opacity="0.4" fill-rule="evenodd" clip-rule="evenodd" d="M6.22221 9.87448L5.22314 9.67158V10.0977L5.3546 10.5643L5.90671 10.9093L5.56493 10.8484L5.24944 10.9296L5.56493 11.3151L5.95929 11.5382L6.51141 11.9643L6.55917 11.9784L6.3942 11.847L6.32769 11.5461V11.2713L6.8331 11.4021L6.9395 11.4937L7.08581 11.5461L6.9927 11.376L6.9395 11.1143L6.9794 10.8134L6.9395 10.604L7.21881 10.3162L7.45821 10.1984L7.67102 10.447L7.85722 10.6302L7.88382 10.761L7.85722 10.9311V11.1928L7.83062 11.4021L7.79072 11.5461L7.93702 11.4676L8.18972 11.2713L8.58873 11.2451V11.5461L8.48233 11.7947L8.32273 11.9648L8.28048 11.9925L8.40437 11.9643L8.95648 11.4774L9.32455 11.2136L9.53488 10.8484H9.16681L8.85131 10.9093L9.16681 10.7469L9.4823 10.4832L9.69263 10.0977V9.631L8.9039 9.67158L8.40437 9.97593L8.11516 10.0977L8.19404 9.87448L8.24662 9.54984V9.14405L8.2992 8.88028L8.24662 8.67738L7.87854 8.39332L7.45789 8.00781L6.98465 8.19042L6.43253 8.6368L6.51141 8.96144L6.43253 9.4281L6.5377 9.8339L6.72174 10.0977L6.43253 10.0165L6.22221 9.87448Z" fill="url(#paint18_linear_61_2121)"/>
</g>
<defs>
<linearGradient id="paint0_linear_61_2121" x1="7.43339" y1="-0.00110774" x2="7.43339" y2="20.0001" gradientUnits="userSpaceOnUse">
<stop stop-color="#0974F2"/>
<stop offset="1" stop-color="#37CFFF"/>
</linearGradient>
<linearGradient id="paint1_linear_61_2121" x1="7.43309" y1="0.0770259" x2="7.43309" y2="19.9219" gradientUnits="userSpaceOnUse">
<stop stop-color="white"/>
<stop offset="1" stop-color="#37CFFF"/>
</linearGradient>
<linearGradient id="paint2_linear_61_2121" x1="7.59871" y1="0.950347" x2="7.59871" y2="18.6719" gradientUnits="userSpaceOnUse">
<stop stop-color="#002BC1"/>
<stop offset="0.535884" stop-color="#1873DD"/>
<stop offset="1" stop-color="#37CFFF"/>
</linearGradient>
<linearGradient id="paint3_linear_61_2121" x1="7.43412" y1="6.9915" x2="7.43412" y2="19.4532" gradientUnits="userSpaceOnUse">
<stop stop-color="#002BC1" stop-opacity="0"/>
<stop offset="0.535884" stop-color="#1873DD" stop-opacity="0"/>
<stop offset="1" stop-color="#0BB5FE"/>
</linearGradient>
<linearGradient id="paint4_linear_61_2121" x1="7.41064" y1="3.78837" x2="7.41064" y2="16.2305" gradientUnits="userSpaceOnUse">
<stop stop-color="#0BB5FE"/>
<stop offset="1" stop-color="#002BC1"/>
</linearGradient>
<linearGradient id="paint5_linear_61_2121" x1="6.27294" y1="0.117188" x2="6.85188" y2="1.53182" gradientUnits="userSpaceOnUse">
<stop stop-color="#002BC1"/>
<stop offset="1" stop-color="#37CFFF"/>
</linearGradient>
<linearGradient id="paint6_linear_61_2121" x1="8.86772" y1="0.078125" x2="8.86772" y2="4.39453" gradientUnits="userSpaceOnUse">
<stop stop-color="#002BC1"/>
<stop offset="1" stop-color="#0BB5FE"/>
</linearGradient>
<linearGradient id="paint7_linear_61_2121" x1="10.9927" y1="1.64062" x2="10.9927" y2="6.11328" gradientUnits="userSpaceOnUse">
<stop stop-color="#002BC1"/>
<stop offset="1" stop-color="#0BB5FE"/>
</linearGradient>
<linearGradient id="paint8_linear_61_2121" x1="12.0188" y1="7.1875" x2="13.3302" y2="12.7506" gradientUnits="userSpaceOnUse">
<stop stop-color="#002BC1"/>
<stop offset="1" stop-color="#0BB5FE"/>
</linearGradient>
<linearGradient id="paint9_linear_61_2121" x1="11.309" y1="13.9253" x2="12.2981" y2="17.1501" gradientUnits="userSpaceOnUse">
<stop stop-color="#002BC1"/>
<stop offset="1" stop-color="#0BB5FE"/>
</linearGradient>
<linearGradient id="paint10_linear_61_2121" x1="9.57578" y1="15.1562" x2="9.57578" y2="19.9609" gradientUnits="userSpaceOnUse">
<stop offset="0.354167" stop-color="#002BC1"/>
<stop offset="1" stop-color="#0BB5FE"/>
</linearGradient>
<linearGradient id="paint11_linear_61_2121" x1="13.3223" y1="3.84766" x2="13.3223" y2="5.83984" gradientUnits="userSpaceOnUse">
<stop stop-color="#002BC1"/>
<stop offset="1" stop-color="#0BB5FE"/>
</linearGradient>
<linearGradient id="paint12_linear_61_2121" x1="7.55121" y1="18.6719" x2="7.55121" y2="19.9219" gradientUnits="userSpaceOnUse">
<stop offset="0.432292" stop-color="#002BC1"/>
<stop offset="1" stop-color="#0BB5FE"/>
</linearGradient>
<linearGradient id="paint13_linear_61_2121" x1="3.84401" y1="14.4141" x2="3.61741" y2="18.3681" gradientUnits="userSpaceOnUse">
<stop stop-color="#002BC1"/>
<stop offset="1" stop-color="#0BB5FE"/>
</linearGradient>
<linearGradient id="paint14_linear_61_2121" x1="4.09651" y1="6.03516" x2="1.75911" y2="12.5764" gradientUnits="userSpaceOnUse">
<stop stop-color="#002BC1"/>
<stop offset="1" stop-color="#0BB5FE"/>
</linearGradient>
<linearGradient id="paint15_linear_61_2121" x1="4.43813" y1="0.722656" x2="4.43813" y2="5.80078" gradientUnits="userSpaceOnUse">
<stop stop-color="#002BC1"/>
<stop offset="1" stop-color="#0BB5FE"/>
</linearGradient>
<linearGradient id="paint16_linear_61_2121" x1="12.8405" y1="8.4375" x2="12.8405" y2="12.1094" gradientUnits="userSpaceOnUse">
<stop stop-color="white"/>
<stop offset="1" stop-color="white" stop-opacity="0"/>
</linearGradient>
<linearGradient id="paint17_linear_61_2121" x1="7.55107" y1="3.86719" x2="7.78497" y2="9.53778" gradientUnits="userSpaceOnUse">
<stop stop-color="white"/>
<stop offset="1" stop-color="white" stop-opacity="0"/>
</linearGradient>
<linearGradient id="paint18_linear_61_2121" x1="7.45789" y1="8.00781" x2="7.45789" y2="12.3501" gradientUnits="userSpaceOnUse">
<stop stop-color="#37CFFF"/>
<stop offset="1" stop-color="white" stop-opacity="0.27"/>
</linearGradient>
</defs>
</svg>
