<svg width="15" height="20" viewBox="0 0 15 20" fill="none" xmlns="http://www.w3.org/2000/svg">
<g id="Rune">
<path id="Vector 44" d="M3.45732 2.92479C3.74055 2.4204 6.09576 0.764766 7.23796 0H7.76902L10.5381 0.8932C11.7183 1.78056 14.1569 3.64636 14.4705 4.01064C14.8625 4.466 14.9257 8.33653 14.9889 9.36984C15.0395 10.1965 14.9257 13.1769 14.4705 14.5312L12.2198 18.5821C11.5159 18.909 9.93878 19.6189 9.26104 19.843C8.41388 20.1233 6.92185 20.0707 5.91031 19.3351C4.89877 18.5996 3.01477 16.5505 2.95155 16.3228C2.88833 16.0951 0.625 11.8218 0.625 9.66757C0.625 7.51339 1.23193 6.49759 1.61125 5.72699C1.99058 4.95638 3.10328 3.55529 3.45732 2.92479Z" fill="#C6B9A6"/>
<path id="Vector 31" d="M8.00154 2.94922L7.27972 0.078125C5.85721 0.90625 4.25747 2.22005 3.63542 2.77344L3.52979 2.94922L4.76216 4.08203L8.00154 2.94922Z" fill="#BCAF9F"/>
<path id="Vector 32" d="M8.07232 2.92969L7.40332 0.0976563L7.72022 0.0390625L8.07232 2.92969Z" fill="#BCAF9F"/>
<path id="Vector 33" d="M8.19537 2.89062L7.84326 0.117188C8.02636 0.117188 9.65661 0.677083 10.4489 0.957031L10.5193 1.95312L11.2235 2.79297L11.4171 3.18359L11.065 4.10156L10.6425 3.92578L10.5193 3.75L10.3256 3.55469H10.0967L9.42774 3.4375L8.51226 3.125L8.19537 2.89062Z" fill="#B7AA9B"/>
<path id="Vector 34" d="M10.5894 1.91406L10.5366 0.976562L11.1176 1.34766L14.3922 3.96484L14.4978 4.14062C14.4274 4.17318 14.2795 4.25 14.2513 4.29688C14.2232 4.34375 14.134 4.51172 14.0929 4.58984L13.5471 5.21484L12.8429 5.99609L12.4908 5.91797L12.2795 5.52734L11.3465 4.375L11.1704 4.14062L11.4169 3.45703L11.4873 3.10547L11.2937 2.77344L10.8887 2.32422L10.5894 1.91406Z" fill="#B5A797"/>
<path id="Vector 35" d="M12.8081 6.28906L12.5969 6.42578L12.4736 6.54297L12.5264 7.05078V9.72656L12.5969 11.8359V13.9453L12.9138 14.1602H13.4595L14.1285 14.4141H14.463L14.7271 13.1641C14.9525 11.5391 14.9384 10.4036 14.9032 10.0391V8.88672L14.7975 6.60156L14.6391 4.6875L14.463 4.33594L14.2518 4.47266L14.0229 4.80469L12.9138 6.07422L12.8081 6.28906Z" fill="#9D9284"/>
<path id="Vector 36" d="M12.896 14.2188L12.5615 14.0039L12.4382 14.1797L12.2798 14.5703C11.9511 14.9544 11.1671 15.8672 10.6601 16.4453C10.1531 17.0234 9.29861 17.6888 8.93476 17.9492C8.91129 18.0664 8.86434 18.3164 8.86434 18.3789C8.86434 18.4414 8.61787 19.4596 8.49463 19.9609L8.93476 19.7852H9.28687C10.2258 19.3555 12.1178 18.5 12.1741 18.5156C12.2305 18.5312 12.3033 18.3008 12.3326 18.1836L14.1635 15L14.4452 14.4922L14.1283 14.4531L13.8643 14.3555C13.7352 14.3099 13.4734 14.2188 13.4593 14.2188H12.896Z" fill="#6D665D"/>
<path id="Vector 37" d="M8.6174 19.2388C8.58924 19.3638 8.4883 19.7596 8.44135 19.9419C8.10098 19.9159 7.3463 19.8443 7.05053 19.7661C6.75476 19.688 6.35218 19.4992 6.18787 19.4146L5.34281 18.8091L4.09283 17.5786L3.10693 16.4654C3.38275 16.4458 3.82875 16.2115 3.9872 16.3091C4.04876 16.347 4.49189 16.563 4.6562 16.563L5.09634 16.4068C5.65384 16.6802 6.8111 17.1997 6.90969 17.2466C7.00828 17.2935 8.2829 17.7739 8.77585 18.0083L8.82867 18.2036C8.78759 18.3078 8.69839 18.5239 8.67022 18.5552C8.64205 18.5864 8.56459 18.5292 8.52938 18.4966H8.19488L8.44135 18.5552L8.67022 18.6919C8.66435 18.8221 8.64557 19.1138 8.6174 19.2388Z" fill="#83796E"/>
<path id="Vector 38" d="M1.71596 9.74594C1.61737 9.77719 1.05283 9.96729 0.782878 10.0584H0.677246L0.782878 10.6053L1.1878 12.0702L2.24412 14.7459L3.07157 16.4842L3.59973 16.2498C3.72297 16.2433 3.98001 16.2342 4.02226 16.2498C4.06451 16.2655 4.43892 16.4126 4.62084 16.4842L5.02577 16.367C4.93774 16.2303 4.75464 15.9452 4.72648 15.8983C4.69831 15.8514 4.40958 15.1105 4.26874 14.7459L3.68776 12.6366L3.1772 10.1756L2.94834 9.27719C2.8251 9.25114 2.56806 9.21469 2.52581 9.27719C2.48355 9.33969 2.32041 9.48552 2.24412 9.55062C2.10915 9.60271 1.81455 9.71469 1.71596 9.74594Z" fill="#A39788"/>
<path id="Vector 39" d="M1.78743 9.62891C1.71701 9.62891 1.0304 9.8763 0.695903 10L0.660692 9.62891C0.654823 9.45964 0.65365 9.05078 0.695903 8.76953C0.748719 8.41797 0.959983 7.32422 0.977588 7.24609C0.991672 7.18359 1.38251 6.29557 1.57617 5.85938C1.7933 5.51432 2.23461 4.81641 2.26278 4.78516C2.29095 4.75391 3.07262 3.60026 3.45994 3.02734L3.51276 3.10547H3.58318L4.67471 4.08203C4.64537 4.10807 4.57964 4.17188 4.55147 4.21875C4.51626 4.27734 4.37542 4.64844 4.35781 4.70703C4.34373 4.75391 3.89421 5.96354 3.67121 6.5625L3.51276 7.10938H3.40713C3.38952 7.08984 3.34375 7.04297 3.30149 7.01172C3.24868 6.97266 3.26628 6.91406 3.21347 6.79688C3.16065 6.67969 3.14305 6.69922 3.07262 6.66016C3.0022 6.62109 2.9846 6.5625 2.93178 6.52344C2.88953 6.49219 2.80854 6.34115 2.77333 6.26953V6.50391C2.90831 6.66667 3.1853 7.00391 3.21347 7.05078C3.24868 7.10938 3.26628 7.10938 3.30149 7.16797C3.3367 7.22656 3.24868 7.87109 3.17826 8.32031C3.10783 8.76953 3.05502 8.96484 3.01981 9.00391C2.99164 9.03516 2.96112 9.16016 2.94939 9.21875C2.87897 9.19271 2.70995 9.13672 2.59728 9.1211C2.45644 9.10156 2.45644 9.29688 2.38602 9.375C2.32968 9.4375 2.2217 9.47917 2.17475 9.49219C2.07499 9.53776 1.85786 9.62891 1.78743 9.62891Z" fill="#B2A799"/>
<path id="Vector 40" d="M3.73047 6.83594L4.72656 4.27734L5.89844 3.82812L8.08594 3.00781L9.53125 3.55469C9.68099 3.58073 9.99219 3.63672 10.0391 3.65234L10.3906 3.76953C10.4427 3.83464 10.5508 3.96875 10.5664 3.98437C10.5859 4.00391 11.0547 4.23827 11.0937 4.25781L11.0938 4.25781C11.125 4.27344 11.8099 5.17578 12.1484 5.625L12.4023 5.99609L12.4609 6.38672L12.3633 6.54297L12.4609 6.99219V10.4492L11.4258 11.1914C10.8073 11.3607 9.48047 11.6797 9.12109 11.6016C8.67188 11.5039 8.76953 11.4844 8.63281 11.4844C8.52344 11.4844 7.98828 11.2891 7.73438 11.1914L3.22266 8.61328L3.41797 7.36328L3.73047 6.83594Z" fill="#AFA18E"/>
<path id="Vector 41" d="M7.79297 11.2891L3.22266 8.67188L3.00781 9.21875L3.35938 10.8789L4.25781 14.375L4.76562 15.8594L5.07812 16.3281L8.80859 17.9297L9.00391 17.8125C9.45964 17.4219 10.3828 16.6367 10.4297 16.6211C10.4766 16.6055 10.6836 16.3151 10.7812 16.1719L8.65234 11.5625L7.79297 11.2891Z" fill="#ACA090"/>
<path id="Vector 42" d="M9.49219 13.3203L8.71094 11.5625L9.04297 11.6406L9.49219 11.6797L11.4648 11.2305L12.4609 10.5078L12.5195 10.6445L12.5391 13.6328V13.9453L12.4023 14.1211L12.2266 14.5703L10.8008 16.1328L10.6836 15.8008L9.49219 13.3203Z" fill="#B0A393"/>
<g id="Vector 40_2" opacity="0.4">
<path d="M4.58286 7.42612C4.81067 7.06161 6.70508 5.86516 7.62381 5.3125H8.05096L10.2783 5.95798C11.2275 6.59923 13.1891 7.94756 13.4413 8.21082C13.7566 8.53988 13.8074 11.3369 13.8583 12.0837C13.8989 12.6811 13.8074 14.8348 13.4413 15.8136L11.6309 18.7409C11.0648 18.9772 9.7962 19.4902 9.25107 19.6522C8.56965 19.8547 7.36955 19.8167 6.55591 19.2852C5.74228 18.7536 4.22689 17.2728 4.17604 17.1083C4.12519 16.9437 2.30469 13.8556 2.30469 12.2988C2.30469 10.7421 2.79287 10.008 3.09798 9.45114C3.40309 8.89426 4.29809 7.88175 4.58286 7.42612Z" fill="url(#paint0_linear_61_2143)" style="mix-blend-mode:hard-light"/>
</g>
<g id="Vector 43" opacity="0.32">
<path d="M4.38813 2.33396C4.61209 2.0325 6.4745 1.043 7.37771 0.585938H7.79765L9.98734 1.11976C10.9205 1.6501 12.8489 2.76521 13.0969 2.98292C13.4069 3.25507 13.4569 5.56832 13.5069 6.18588C13.5468 6.67993 13.4569 8.46117 13.0969 9.27063L11.3172 11.6916C10.7606 11.887 9.51341 12.3113 8.97748 12.4453C8.30758 12.6127 7.12774 12.5813 6.32785 12.1417C5.52797 11.7021 4.03817 10.4774 3.98818 10.3414C3.93819 10.2053 2.14844 7.65129 2.14844 6.36382C2.14844 5.07636 2.62837 4.46926 2.92833 4.00871C3.22829 3.54815 4.10816 2.71078 4.38813 2.33396Z" fill="url(#paint1_linear_61_2143)" style="mix-blend-mode:screen"/>
</g>
<g id="Symbol" opacity="0.8">
<g id="Mask Group">
<mask id="mask0_61_2143" style="mask-type:alpha" maskUnits="userSpaceOnUse" x="3" y="3" width="10" height="9">
<path id="Vector 43_2" d="M3.73047 6.83594L4.72656 4.27734L5.89844 3.82812L8.08594 3.00781L9.53125 3.55469C9.68099 3.58073 9.99219 3.63672 10.0391 3.65234L10.3906 3.76953C10.4427 3.83464 10.5508 3.96875 10.5664 3.98437C10.5859 4.00391 11.0547 4.23827 11.0937 4.25781L11.0938 4.25781C11.125 4.27344 11.8099 5.17578 12.1484 5.625L12.4023 5.99609L12.4609 6.38672L12.3633 6.54297L12.4609 6.99219V10.4492L11.4258 11.1914C10.8073 11.3607 9.48047 11.6797 9.12109 11.6016C8.67188 11.5039 8.76953 11.4844 8.63281 11.4844C8.52344 11.4844 7.98828 11.2891 7.73438 11.1914L3.22266 8.61328L3.41797 7.36328L3.73047 6.83594Z" fill="#B3A696"/>
</mask>
<g mask="url(#mask0_61_2143)">
<path id="Subtract" fill-rule="evenodd" clip-rule="evenodd" d="M7.25111 8.33708L6.3022 9.28599C6.26424 9.32395 5.99117 9.82898 5.85938 10.0767V10.5038L6.0966 11.4527L6.46035 11.9904L6.80335 12.2497L6.75069 11.8768L6.55485 11.1833L6.66365 10.8149C6.70717 10.7535 6.80509 10.6199 6.84861 10.5766C6.89213 10.5332 7.25842 10.2046 7.43613 10.0456L7.96924 9.80726L8.66556 9.87227L9.31836 10.5224C9.34447 10.5484 9.53233 10.8944 9.623 11.0642V11.3567L9.4598 12.0068L9.20956 12.3752L8.76348 12.7111L8.71049 12.7375L9.24382 12.5597L9.89224 12.2751L10.0346 11.2629L10.3193 10.2507L10.1611 9.713C10.0978 9.62338 9.9555 9.42833 9.89224 9.36506C9.82898 9.3018 9.29654 8.82208 9.03822 8.59012L8.26328 8.24219L7.25111 8.33708Z" fill="url(#paint2_linear_61_2143)"/>
<path id="Vector 45" d="M9.0251 10.7395L8.52643 10.2448L7.99451 10.1953L7.58727 10.3767C7.45152 10.4976 7.17171 10.7477 7.13846 10.7807C7.10522 10.8137 7.03042 10.9154 6.99717 10.9621L6.91406 11.2424L7.06366 11.7701L7.13846 12.2978L7.47922 12.4462L7.87816 12.5781H8.25216L8.60123 12.405L8.94199 12.1494L9.13314 11.8691L9.25781 11.3744V11.1517C9.18855 11.0226 9.04505 10.7593 9.0251 10.7395Z" fill="url(#paint3_linear_61_2143)"/>
</g>
</g>
<g id="Mask Group_2">
<mask id="mask1_61_2143" style="mask-type:alpha" maskUnits="userSpaceOnUse" x="8" y="10" width="5" height="7">
<path id="Vector 43_3" d="M9.49219 13.3203L8.71094 11.5625L9.04297 11.6406L9.49219 11.6797L11.4648 11.2305L12.4609 10.5078L12.5195 10.6445L12.5391 13.6328V13.9453L12.4023 14.1211L12.2266 14.5703L10.8008 16.1328L10.6836 15.8008L9.49219 13.3203Z" fill="#9C8D7A"/>
</mask>
<g mask="url(#mask1_61_2143)">
<path id="Subtract_2" fill-rule="evenodd" clip-rule="evenodd" d="M7.25111 8.33708L6.3022 9.28599C6.26424 9.32395 5.99117 9.82898 5.85938 10.0767V10.5038L6.0966 11.4527L6.46035 11.9904L6.80335 12.2497L6.75069 11.8768L6.55485 11.1833L6.66365 10.8149C6.70717 10.7535 6.80509 10.6199 6.84861 10.5766C6.89213 10.5332 7.25842 10.2046 7.43613 10.0456L7.96924 9.80726L8.66556 9.87227L9.31836 10.5224C9.34447 10.5484 9.53233 10.8944 9.623 11.0642V11.3567L9.4598 12.0068L9.20956 12.3752L8.76348 12.7111L8.71049 12.7375L9.24382 12.5597L9.89224 12.2751L10.0346 11.2629L10.3193 10.2507L10.1611 9.713C10.0978 9.62338 9.9555 9.42833 9.89224 9.36506C9.82898 9.3018 9.29654 8.82208 9.03822 8.59012L8.26328 8.24219L7.25111 8.33708Z" fill="url(#paint4_linear_61_2143)"/>
<path id="Vector 45_2" d="M9.0251 10.7395L8.52643 10.2448L7.99451 10.1953L7.58727 10.3767C7.45152 10.4976 7.17171 10.7477 7.13846 10.7807C7.10522 10.8137 7.03042 10.9154 6.99717 10.9621L6.91406 11.2424L7.06366 11.7701L7.13846 12.2978L7.47922 12.4462L7.87816 12.5781H8.25216L8.60123 12.405L8.94199 12.1494L9.13314 11.8691L9.25781 11.3744V11.1517C9.18855 11.0226 9.04505 10.7593 9.0251 10.7395Z" fill="url(#paint5_linear_61_2143)"/>
</g>
</g>
<g id="Mask Group_3">
<mask id="mask2_61_2143" style="mask-type:alpha" maskUnits="userSpaceOnUse" x="3" y="8" width="8" height="10">
<path id="Vector 43_4" d="M7.79297 11.2891L3.22266 8.67188L3.00781 9.21875L3.35938 10.8789L4.25781 14.375L4.76562 15.8594L5.07812 16.3281L8.80859 17.9297L9.00391 17.8125C9.45964 17.4219 10.3828 16.6367 10.4297 16.6211C10.4766 16.6055 10.6836 16.3151 10.7812 16.1719L8.65234 11.5625L7.79297 11.2891Z" fill="#9C8D7A"/>
</mask>
<g mask="url(#mask2_61_2143)">
<path id="Subtract_3" fill-rule="evenodd" clip-rule="evenodd" d="M7.25111 8.33708L6.3022 9.28599C6.26424 9.32395 5.99117 9.82898 5.85938 10.0767V10.5038L6.0966 11.4527L6.46035 11.9904L6.80335 12.2497L6.75069 11.8768L6.55485 11.1833L6.66365 10.8149C6.70717 10.7535 6.80509 10.6199 6.84861 10.5766C6.89213 10.5332 7.25842 10.2046 7.43613 10.0456L7.96924 9.80726L8.66556 9.87227L9.31836 10.5224C9.34447 10.5484 9.53233 10.8944 9.623 11.0642V11.3567L9.4598 12.0068L9.20956 12.3752L8.76348 12.7111L8.71049 12.7375L9.24382 12.5597L9.89224 12.2751L10.0346 11.2629L10.3193 10.2507L10.1611 9.713C10.0978 9.62338 9.9555 9.42833 9.89224 9.36506C9.82898 9.3018 9.29654 8.82208 9.03822 8.59012L8.26328 8.24219L7.25111 8.33708Z" fill="url(#paint6_linear_61_2143)"/>
<path id="Vector 45_3" d="M9.0251 10.7395L8.52643 10.2448L7.99451 10.1953L7.58727 10.3767C7.45152 10.4976 7.17171 10.7477 7.13846 10.7807C7.10522 10.8137 7.03042 10.9154 6.99717 10.9621L6.91406 11.2424L7.06366 11.7701L7.13846 12.2978L7.47922 12.4462L7.87816 12.5781H8.25216L8.60123 12.405L8.94199 12.1494L9.13314 11.8691L9.25781 11.3744V11.1517C9.18855 11.0226 9.04505 10.7593 9.0251 10.7395Z" fill="url(#paint7_linear_61_2143)"/>
</g>
</g>
</g>
</g>
<defs>
<linearGradient id="paint0_linear_61_2143" x1="8.08594" y1="5.3125" x2="8.08594" y2="19.7656" gradientUnits="userSpaceOnUse">
<stop stop-color="#B6A68F" stop-opacity="0"/>
<stop offset="1" stop-color="#4D4D4D"/>
</linearGradient>
<linearGradient id="paint1_linear_61_2143" x1="7.83203" y1="0.585938" x2="7.83203" y2="12.5391" gradientUnits="userSpaceOnUse">
<stop stop-color="#9D917F"/>
<stop offset="1" stop-color="#9C8C74" stop-opacity="0"/>
</linearGradient>
<linearGradient id="paint2_linear_61_2143" x1="8.08931" y1="8.24219" x2="8.08931" y2="12.7375" gradientUnits="userSpaceOnUse">
<stop stop-color="#847766"/>
<stop offset="1" stop-color="#9B8E7E" stop-opacity="0"/>
</linearGradient>
<linearGradient id="paint3_linear_61_2143" x1="8.08594" y1="10.1953" x2="8.08594" y2="12.5781" gradientUnits="userSpaceOnUse">
<stop stop-color="#7C6F5F"/>
<stop offset="1" stop-color="#A09689" stop-opacity="0.24"/>
</linearGradient>
<linearGradient id="paint4_linear_61_2143" x1="8.08931" y1="8.24219" x2="8.08931" y2="12.7375" gradientUnits="userSpaceOnUse">
<stop stop-color="#847766"/>
<stop offset="1" stop-color="#9B8E7E" stop-opacity="0"/>
</linearGradient>
<linearGradient id="paint5_linear_61_2143" x1="8.08594" y1="10.1953" x2="8.08594" y2="12.5781" gradientUnits="userSpaceOnUse">
<stop stop-color="#7C6F5F"/>
<stop offset="1" stop-color="#A09689" stop-opacity="0.24"/>
</linearGradient>
<linearGradient id="paint6_linear_61_2143" x1="8.08931" y1="8.24219" x2="8.08931" y2="12.7375" gradientUnits="userSpaceOnUse">
<stop stop-color="#847766"/>
<stop offset="1" stop-color="#9B8E7E" stop-opacity="0.3"/>
</linearGradient>
<linearGradient id="paint7_linear_61_2143" x1="8.08594" y1="10.1953" x2="8.08594" y2="12.5781" gradientUnits="userSpaceOnUse">
<stop stop-color="#7C6F5F"/>
<stop offset="1" stop-color="#A09689" stop-opacity="0.39"/>
</linearGradient>
</defs>
</svg>
