<svg width="184" height="182" viewBox="0 0 184 182" fill="none" xmlns="http://www.w3.org/2000/svg">
<g id="Rune">
<path id="Background" d="M87.1965 79.5246C87.9701 78.1751 89.5049 77.157 90.625 77.047C93.6256 76.8151 94.832 77.4989 95.1963 77.8378C96.3879 79.0414 98.8475 81.6174 99.1522 82.2922C99.5332 83.1356 98.7079 88.7713 98.2731 90.463C97.9448 91.7405 97.7876 91.9643 97.7452 92.0183C96.5081 93.5925 93.0044 97.0418 92.3246 96.9996C91.4748 96.9469 89.8338 95.4709 89.7459 95.3391C89.6579 95.2073 86.3467 89.9885 85.5262 88.0381C84.7057 86.0876 84.8815 85.5078 84.9108 85.376C84.9401 85.2442 86.2295 81.2115 87.1965 79.5246Z" fill="url(#paint0_linear_61_2103)"/>
<g id="Background_2" opacity="0.64">
<path d="M87.2228 79.5788C87.9917 78.2392 89.5171 77.2286 90.6303 77.1194C93.6126 76.8892 94.8115 77.568 95.1736 77.9043C96.358 79.0992 98.8024 81.6562 99.1053 82.326C99.4839 83.1633 98.6637 88.7575 98.2316 90.4368C97.9053 91.7049 97.7491 91.9271 97.7069 91.9807C96.4774 93.5433 92.9951 96.9672 92.3195 96.9254C91.4749 96.8731 89.8439 95.4079 89.7566 95.2771C89.6692 95.1462 86.3782 89.9658 85.5627 88.0297C84.7473 86.0936 84.922 85.518 84.9511 85.3872C84.9802 85.2564 86.2617 81.2533 87.2228 79.5788Z" fill="url(#paint1_linear_61_2103)" style="mix-blend-mode:overlay"/>
</g>
<g id="Background_3" opacity="0.64">
<path d="M87.9104 79.0133C88.5437 78.125 89.8003 77.4549 90.7173 77.3825C93.174 77.2298 94.1617 77.68 94.4599 77.903C95.4356 78.6952 97.4492 80.3908 97.6987 80.8349C98.0106 81.39 97.335 85.0995 96.979 86.2129C96.7102 87.0538 96.5815 87.2011 96.5468 87.2366C95.5339 88.2728 92.6654 90.5431 92.1088 90.5154C91.4131 90.4807 90.0696 89.5092 89.9976 89.4224C89.9256 89.3357 87.2146 85.9007 86.5429 84.6169C85.8712 83.3331 86.0151 82.9514 86.0391 82.8647C86.0631 82.7779 87.1187 80.1236 87.9104 79.0133Z" fill="url(#paint2_linear_61_2103)" style="mix-blend-mode:multiply"/>
</g>
<g id="Background_4" opacity="0.8">
<path d="M88.1289 84.9508C88.7509 84.0625 89.9851 83.3924 90.8857 83.32C93.2985 83.1673 94.2685 83.6175 94.5615 83.8405C95.5197 84.6327 97.4974 86.3283 97.7424 86.7724C98.0487 87.3275 97.3852 91.037 97.0356 92.1504C96.7715 92.9913 96.6452 93.1386 96.6111 93.1741C95.6163 94.2103 92.799 96.4806 92.2523 96.4529C91.569 96.4182 90.2495 95.4467 90.1788 95.3599C90.1081 95.2732 87.4456 91.8382 86.7858 90.5544C86.1261 89.2706 86.2674 88.8889 86.291 88.8022C86.3146 88.7154 87.3513 86.0611 88.1289 84.9508Z" fill="url(#paint3_linear_61_2103)" style="mix-blend-mode:darken"/>
</g>
<path id="Center" opacity="0.48" d="M93.6863 81.5925L89.449 82.0137C89.087 82.0497 87.8172 84.5429 87.2275 85.785C88.0777 87.7505 89.8028 91.712 89.9015 91.8345C90.0003 91.957 91.6979 93.0086 92.5344 93.5192C93.2612 93.0725 94.8546 92.0106 95.4141 91.3368C95.9736 90.6629 96.4151 86.3721 96.5659 84.311C95.628 83.147 94.2553 82.0137 93.6863 81.5925Z" fill="url(#paint4_linear_61_2103)"/>
<g id="Vector 1" opacity="0.4" filter="url(#filter0_f_61_2103)">
<path d="M90.0848 92.8223C88.2874 91.8667 88.8673 90.2027 89.3819 89.4902C89.4363 89.2981 89.6907 88.8762 90.2731 88.7253C91.0011 88.5367 90.2982 89.6055 90.2731 90.056C90.248 90.5066 92.683 91.4706 93.5365 91.4496C94.39 91.4287 94.2896 90.056 94.9423 89.6055C95.4645 89.245 95.8711 90.1468 96.0092 90.6428C95.8962 92.3089 94.7164 92.9376 94.5407 93.1471C94.3649 93.3567 92.3316 94.0168 90.0848 92.8223Z" fill="#F9FD22"/>
</g>
<g id="1" opacity="0.64" filter="url(#filter1_i_61_2103)">
<path d="M89.3599 81.7774C89.1529 81.7774 88.0132 80.053 87.4692 79.1909C89.0614 77.214 90.3749 76.9738 92.3252 77.0477C93.8855 77.1068 94.793 77.565 95.0517 77.7867C94.6139 78.926 93.7183 81.2268 93.6387 81.3155C93.5392 81.4264 89.6186 81.7774 89.3599 81.7774Z" fill="url(#paint5_linear_61_2103)"/>
</g>
<g id="2" opacity="0.64" filter="url(#filter2_i_61_2103)">
<path d="M93.7347 81.3515C93.7028 81.2626 94.626 78.9686 95.0916 77.8328C97.3862 79.9625 99.0624 82.2404 99.0823 82.333C99.1023 82.4256 97.067 83.8516 96.8076 83.9998C96.6001 84.1183 96.5704 84.0553 96.5282 83.9998C95.77 82.9997 93.7746 81.4626 93.7347 81.3515Z" fill="url(#paint6_linear_61_2103)"/>
</g>
<path id="3" opacity="0.64" d="M99.0226 82.463C99.1184 82.3889 99.1556 82.4322 99.1623 82.463C99.274 82.9075 99.0758 84.8829 98.9627 85.8151C98.3242 90.6302 98.0049 91.3339 97.8852 91.6673C97.7894 91.9339 97.7256 91.9636 97.7056 91.9451C97.4529 91.8957 96.8037 91.7302 96.2291 91.4635C95.6544 91.1969 95.5639 90.9697 95.5905 90.8894C96.0694 89.9449 96.5882 84.3335 96.6281 84.2409C96.668 84.1483 98.9029 82.5556 99.0226 82.463Z" fill="url(#paint7_linear_61_2103)"/>
<g id="8" opacity="0.64">
<g filter="url(#filter3_i_61_2103)">
<path d="M99.006 82.4484C99.1018 82.3743 99.139 82.4175 99.1457 82.4484C99.2574 82.8928 99.0592 84.8683 98.9461 85.8004C98.3076 90.6155 97.9883 91.3193 97.8686 91.6526C97.7728 91.9193 97.709 91.9489 97.689 91.9304C97.4363 91.881 96.7871 91.7156 96.2125 91.4489C95.6378 91.1822 95.5473 90.955 95.5739 90.8748C96.0528 89.9303 96.5716 84.3189 96.6115 84.2263C96.6514 84.1337 98.8863 82.541 99.006 82.4484Z" fill="url(#paint8_linear_61_2103)"/>
</g>
<path d="M99.006 82.4484C99.1018 82.3743 99.139 82.4175 99.1457 82.4484C99.2574 82.8928 99.0592 84.8683 98.9461 85.8004C98.3076 90.6155 97.9883 91.3193 97.8686 91.6526C97.7728 91.9193 97.709 91.9489 97.689 91.9304C97.4363 91.881 96.7871 91.7156 96.2125 91.4489C95.6378 91.1822 95.5473 90.955 95.5739 90.8748C96.0528 89.9303 96.5716 84.3189 96.6115 84.2263C96.6514 84.1337 98.8863 82.541 99.006 82.4484Z" stroke="white" stroke-opacity="0.16"/>
</g>
<g id="4" opacity="0.64" filter="url(#filter4_i_61_2103)">
<path d="M96.6474 91.6477C96.7283 91.6477 97.4284 91.8904 97.7249 91.9711C95.9296 94.2651 93.6073 96.1482 92.6908 96.8124C92.5964 96.8558 92.3956 96.939 92.3471 96.9241C92.2864 96.9055 92.529 96.4399 92.5897 96.3655C92.6382 96.3059 92.5694 94.3172 92.529 93.3304C93.5965 92.7196 94.8318 91.7367 95.3305 91.2774L95.3308 91.2769C95.3717 91.2268 95.5053 91.0627 95.6021 91.1518C95.7234 91.2635 96.5463 91.6477 96.6474 91.6477Z" fill="url(#paint9_linear_61_2103)"/>
</g>
<g id="5" opacity="0.64" filter="url(#filter5_i_61_2103)">
<path d="M92.4775 93.4264C92.4775 93.4116 92.4243 93.3585 92.3977 93.3338C91.5663 92.7968 89.8875 91.7189 89.8237 91.7041C89.7598 91.6893 88.6929 92.3646 88.1675 92.7042C88.3431 93.0597 89.3448 94.6178 89.8237 95.3525C90.6857 96.271 91.7658 96.797 92.1982 96.9451L92.5972 96.334C92.6371 93.945 92.4775 93.4449 92.4775 93.4264Z" fill="url(#paint10_linear_61_2103)"/>
</g>
<g id="6" opacity="0.64" filter="url(#filter6_i_61_2103)">
<path d="M84.9749 85.5911C84.9111 85.5911 84.9084 85.6281 84.9151 85.6466C84.955 87.2023 86.0724 89.0357 86.2919 89.4802C86.5114 89.9247 87.968 92.3507 88.0478 92.5174C88.1117 92.6507 88.1942 92.6779 88.2075 92.6656C88.846 92.2952 89.704 91.647 89.724 91.5914C89.7399 91.547 88.1476 87.8566 87.3495 86.017C87.2896 85.8812 87.1499 85.617 87.0701 85.6466C86.9903 85.6763 86.2786 85.6343 85.9327 85.6096C85.6401 85.6034 85.0388 85.5911 84.9749 85.5911Z" fill="url(#paint11_linear_61_2103)"/>
</g>
<g id="7" opacity="0.64" filter="url(#filter7_i_61_2103)">
<path d="M87.4492 79.2764C87.4333 79.2616 87.3894 79.2949 87.3694 79.3134C86.3318 81.1654 85.3142 84.1594 84.9351 85.4249V85.536C85.4273 85.5607 86.4835 85.6101 86.7708 85.6101C87.0581 85.6101 87.1433 85.5607 87.1499 85.536C87.4093 84.8323 89.1254 81.9247 89.1653 81.8506C89.2052 81.7765 87.4692 79.2949 87.4492 79.2764Z" fill="url(#paint12_linear_61_2103)"/>
</g>
<path id="Symbol" opacity="0.4" fill-rule="evenodd" clip-rule="evenodd" d="M90.946 86.9278L91.1226 85.8405L91.7003 85.2596L91.8447 84.5L92.8076 85.5575L93.1125 86.6448L93.6261 86.4065L93.8989 85.6469L94.1878 86.6448V87.8811L93.6261 89.162L93.5045 89.3278L93.8987 88.1509C93.8827 87.8906 93.7992 87.2581 93.7864 87.2173C93.777 87.1876 93.619 87.5536 93.5156 87.7933C93.4772 87.8821 93.4464 87.9536 93.4333 87.9812L93.1926 88.4055L92.6372 89.1022L92.9358 87.9812L92.8075 87.2852L92.4865 86.7251L91.9729 86.3177L92.0692 86.5893V86.9967L91.7001 87.2173L91.4273 87.7775L91.3631 88.2867L91.4755 88.5583L91.1063 88.4055L90.7051 88.1L90.336 87.5738L90.4398 88.3168L90.9424 89.4991L90.761 89.295L90.1597 88.3875L89.9189 87.464L90.0313 86.049L90.4646 86.7789L90.946 86.9278Z" fill="url(#paint13_linear_61_2103)"/>
</g>
<defs>
<filter id="filter0_f_61_2103" x="0.865723" y="0.703125" width="183.144" height="180.815" filterUnits="userSpaceOnUse" color-interpolation-filters="sRGB">
<feFlood flood-opacity="0" result="BackgroundImageFix"/>
<feBlend mode="normal" in="SourceGraphic" in2="BackgroundImageFix" result="shape"/>
<feGaussianBlur stdDeviation="44" result="effect1_foregroundBlur_61_2103"/>
</filter>
<filter id="filter1_i_61_2103" x="87.4692" y="77.0364" width="7.58252" height="5.74097" filterUnits="userSpaceOnUse" color-interpolation-filters="sRGB">
<feFlood flood-opacity="0" result="BackgroundImageFix"/>
<feBlend mode="normal" in="SourceGraphic" in2="BackgroundImageFix" result="shape"/>
<feColorMatrix in="SourceAlpha" type="matrix" values="0 0 0 0 0 0 0 0 0 0 0 0 0 0 0 0 0 0 127 0" result="hardAlpha"/>
<feOffset dy="1"/>
<feGaussianBlur stdDeviation="8"/>
<feComposite in2="hardAlpha" operator="arithmetic" k2="-1" k3="1"/>
<feColorMatrix type="matrix" values="0 0 0 0 0.935417 0 0 0 0 0.691583 0 0 0 0 0.0645833 0 0 0 1 0"/>
<feBlend mode="normal" in2="shape" result="effect1_innerShadow_61_2103"/>
</filter>
<filter id="filter2_i_61_2103" x="93.7339" y="77.8328" width="5.34863" height="7.23438" filterUnits="userSpaceOnUse" color-interpolation-filters="sRGB">
<feFlood flood-opacity="0" result="BackgroundImageFix"/>
<feBlend mode="normal" in="SourceGraphic" in2="BackgroundImageFix" result="shape"/>
<feColorMatrix in="SourceAlpha" type="matrix" values="0 0 0 0 0 0 0 0 0 0 0 0 0 0 0 0 0 0 127 0" result="hardAlpha"/>
<feOffset dy="1"/>
<feGaussianBlur stdDeviation="8"/>
<feComposite in2="hardAlpha" operator="arithmetic" k2="-1" k3="1"/>
<feColorMatrix type="matrix" values="0 0 0 0 0.935417 0 0 0 0 0.691583 0 0 0 0 0.0645833 0 0 0 1 0"/>
<feBlend mode="normal" in2="shape" result="effect1_innerShadow_61_2103"/>
</filter>
<filter id="filter3_i_61_2103" x="95.0698" y="81.907" width="4.60889" height="11.5276" filterUnits="userSpaceOnUse" color-interpolation-filters="sRGB">
<feFlood flood-opacity="0" result="BackgroundImageFix"/>
<feBlend mode="normal" in="SourceGraphic" in2="BackgroundImageFix" result="shape"/>
<feColorMatrix in="SourceAlpha" type="matrix" values="0 0 0 0 0 0 0 0 0 0 0 0 0 0 0 0 0 0 127 0" result="hardAlpha"/>
<feOffset dy="1"/>
<feGaussianBlur stdDeviation="8"/>
<feComposite in2="hardAlpha" operator="arithmetic" k2="-1" k3="1"/>
<feColorMatrix type="matrix" values="0 0 0 0 0.935417 0 0 0 0 0.691583 0 0 0 0 0.0645833 0 0 0 1 0"/>
<feBlend mode="normal" in2="shape" result="effect1_innerShadow_61_2103"/>
</filter>
<filter id="filter4_i_61_2103" x="92.3374" y="91.1257" width="5.3877" height="6.80005" filterUnits="userSpaceOnUse" color-interpolation-filters="sRGB">
<feFlood flood-opacity="0" result="BackgroundImageFix"/>
<feBlend mode="normal" in="SourceGraphic" in2="BackgroundImageFix" result="shape"/>
<feColorMatrix in="SourceAlpha" type="matrix" values="0 0 0 0 0 0 0 0 0 0 0 0 0 0 0 0 0 0 127 0" result="hardAlpha"/>
<feOffset dy="1"/>
<feGaussianBlur stdDeviation="8"/>
<feComposite in2="hardAlpha" operator="arithmetic" k2="-1" k3="1"/>
<feColorMatrix type="matrix" values="0 0 0 0 0.935417 0 0 0 0 0.691583 0 0 0 0 0.0645833 0 0 0 1 0"/>
<feBlend mode="normal" in2="shape" result="effect1_innerShadow_61_2103"/>
</filter>
<filter id="filter5_i_61_2103" x="88.1675" y="91.7039" width="4.43604" height="6.24121" filterUnits="userSpaceOnUse" color-interpolation-filters="sRGB">
<feFlood flood-opacity="0" result="BackgroundImageFix"/>
<feBlend mode="normal" in="SourceGraphic" in2="BackgroundImageFix" result="shape"/>
<feColorMatrix in="SourceAlpha" type="matrix" values="0 0 0 0 0 0 0 0 0 0 0 0 0 0 0 0 0 0 127 0" result="hardAlpha"/>
<feOffset dy="1"/>
<feGaussianBlur stdDeviation="8"/>
<feComposite in2="hardAlpha" operator="arithmetic" k2="-1" k3="1"/>
<feColorMatrix type="matrix" values="0 0 0 0 0.935417 0 0 0 0 0.691583 0 0 0 0 0.0645833 0 0 0 1 0"/>
<feBlend mode="normal" in2="shape" result="effect1_innerShadow_61_2103"/>
</filter>
<filter id="filter6_i_61_2103" x="84.9126" y="85.5911" width="4.81152" height="8.07715" filterUnits="userSpaceOnUse" color-interpolation-filters="sRGB">
<feFlood flood-opacity="0" result="BackgroundImageFix"/>
<feBlend mode="normal" in="SourceGraphic" in2="BackgroundImageFix" result="shape"/>
<feColorMatrix in="SourceAlpha" type="matrix" values="0 0 0 0 0 0 0 0 0 0 0 0 0 0 0 0 0 0 127 0" result="hardAlpha"/>
<feOffset dy="1"/>
<feGaussianBlur stdDeviation="8"/>
<feComposite in2="hardAlpha" operator="arithmetic" k2="-1" k3="1"/>
<feColorMatrix type="matrix" values="0 0 0 0 0.935417 0 0 0 0 0.691583 0 0 0 0 0.0645833 0 0 0 1 0"/>
<feBlend mode="normal" in2="shape" result="effect1_innerShadow_61_2103"/>
</filter>
<filter id="filter7_i_61_2103" x="84.9351" y="79.2727" width="4.23096" height="7.3374" filterUnits="userSpaceOnUse" color-interpolation-filters="sRGB">
<feFlood flood-opacity="0" result="BackgroundImageFix"/>
<feBlend mode="normal" in="SourceGraphic" in2="BackgroundImageFix" result="shape"/>
<feColorMatrix in="SourceAlpha" type="matrix" values="0 0 0 0 0 0 0 0 0 0 0 0 0 0 0 0 0 0 127 0" result="hardAlpha"/>
<feOffset dy="1"/>
<feGaussianBlur stdDeviation="8"/>
<feComposite in2="hardAlpha" operator="arithmetic" k2="-1" k3="1"/>
<feColorMatrix type="matrix" values="0 0 0 0 0.935417 0 0 0 0 0.691583 0 0 0 0 0.0645833 0 0 0 1 0"/>
<feBlend mode="normal" in2="shape" result="effect1_innerShadow_61_2103"/>
</filter>
<linearGradient id="paint0_linear_61_2103" x1="92.0584" y1="76.9989" x2="92.0584" y2="97.0001" gradientUnits="userSpaceOnUse">
<stop stop-color="#FFD337"/>
<stop offset="1" stop-color="#F2B109"/>
</linearGradient>
<linearGradient id="paint1_linear_61_2103" x1="92.0549" y1="77.0717" x2="92.0549" y2="96.9258" gradientUnits="userSpaceOnUse">
<stop stop-color="#FCAE67"/>
<stop offset="0.505208" stop-color="#EAAE37"/>
<stop offset="1" stop-color="#FFEC40"/>
</linearGradient>
<linearGradient id="paint2_linear_61_2103" x1="91.8909" y1="77.3508" x2="91.8909" y2="90.5157" gradientUnits="userSpaceOnUse">
<stop stop-color="#F2B109"/>
<stop offset="1" stop-color="#EAAE37" stop-opacity="0.3"/>
</linearGradient>
<linearGradient id="paint3_linear_61_2103" x1="92.0383" y1="83.2883" x2="92.0383" y2="96.4532" gradientUnits="userSpaceOnUse">
<stop stop-color="#F2B109" stop-opacity="0"/>
<stop offset="1" stop-color="#E87206"/>
</linearGradient>
<linearGradient id="paint4_linear_61_2103" x1="91.8967" y1="81.5925" x2="91.8967" y2="93.5192" gradientUnits="userSpaceOnUse">
<stop stop-color="#EA7000"/>
<stop offset="0.557292" stop-color="#F2B109"/>
<stop offset="1" stop-color="#EA7000"/>
</linearGradient>
<linearGradient id="paint5_linear_61_2103" x1="91.2605" y1="77.0364" x2="91.2605" y2="81.7774" gradientUnits="userSpaceOnUse">
<stop stop-color="#EAA800"/>
<stop offset="0.463542" stop-color="#EA8C00"/>
<stop offset="1" stop-color="#F2B109"/>
</linearGradient>
<linearGradient id="paint6_linear_61_2103" x1="96.4082" y1="77.8328" x2="96.4082" y2="84.0671" gradientUnits="userSpaceOnUse">
<stop stop-color="#EA7000"/>
<stop offset="0.463542" stop-color="#EA9A00"/>
<stop offset="1" stop-color="#F2B109"/>
</linearGradient>
<linearGradient id="paint7_linear_61_2103" x1="97.3909" y1="82.4221" x2="97.3909" y2="91.9495" gradientUnits="userSpaceOnUse">
<stop stop-color="#F2B109"/>
<stop offset="1" stop-color="#EA7000"/>
</linearGradient>
<linearGradient id="paint8_linear_61_2103" x1="97.3743" y1="82.4075" x2="97.3743" y2="91.9349" gradientUnits="userSpaceOnUse">
<stop stop-color="#D92700"/>
<stop offset="0.463542" stop-color="#EAA800"/>
<stop offset="1" stop-color="#F2B109"/>
</linearGradient>
<linearGradient id="paint9_linear_61_2103" x1="95.4103" y1="90.4255" x2="94.4598" y2="95.5272" gradientUnits="userSpaceOnUse">
<stop stop-color="#EA2A00"/>
<stop offset="0.463542" stop-color="#EA7000"/>
<stop offset="1" stop-color="#FFEC40"/>
</linearGradient>
<linearGradient id="paint10_linear_61_2103" x1="89.2051" y1="90.1114" x2="90.2255" y2="96.969" gradientUnits="userSpaceOnUse">
<stop stop-color="#EA2A00"/>
<stop offset="0.463542" stop-color="#EA8C00"/>
<stop offset="1" stop-color="#F9FD22"/>
</linearGradient>
<linearGradient id="paint11_linear_61_2103" x1="87.3183" y1="85.5911" x2="87.3183" y2="92.6511" gradientUnits="userSpaceOnUse">
<stop stop-color="#EA3800"/>
<stop offset="0.463542" stop-color="#EA8C00"/>
<stop offset="1" stop-color="#F2B109"/>
</linearGradient>
<linearGradient id="paint12_linear_61_2103" x1="87.0505" y1="79.2727" x2="87.0505" y2="85.6101" gradientUnits="userSpaceOnUse">
<stop stop-color="#EA7000"/>
<stop offset="0.463542" stop-color="#EA9A00"/>
<stop offset="1" stop-color="#F2B109"/>
</linearGradient>
<linearGradient id="paint13_linear_61_2103" x1="92.0534" y1="84.5" x2="92.0534" y2="89.4993" gradientUnits="userSpaceOnUse">
<stop stop-color="#D90000"/>
<stop offset="1" stop-color="#EA7000" stop-opacity="0.24"/>
</linearGradient>
</defs>
</svg>
